iA Writer Duospace Italic-Regular.ufo
<glyph name="quotedbl" format="1">
  <advance width="600"/>
  <unicode hex="0022"/>
  <outline>
    <contour>
      <point x="431" y="740" type="line"/>
      <point x="385" y="464" type="line"/>
      <point x="459" y="464" type="line"/>
      <point x="505" y="740" type="line"/>
    </contour>
    <contour>
      <point x="256" y="740" type="line"/>
      <point x="210" y="464" type="line"/>
      <point x="284" y="464" type="line"/>
      <point x="330" y="740" type="line"/>
    </contour>
  </outline>
</glyph>
<glyph name="slash" format="1">
  <advance width="600"/>
  <unicode hex="002F"/>
  <outline>
    <contour>
      <point x="521" y="760" type="line"/>
      <point x="25" y="-138" type="line"/>
      <point x="97" y="-138" type="line"/>
      <point x="594" y="760" type="line"/>
    </contour>
  </outline>
</glyph>
<glyph name="seven" format="1">
  <advance width="600"/>
  <unicode hex="0037"/>
  <outline>
    <contour>
      <point x="503" y="627" type="line"/>
      <point x="131" y="0" type="line"/>
      <point x="222" y="0" type="line"/>
      <point x="590" y="626" type="line"/>
      <point x="602" y="698" type="line"/>
      <point x="137" y="698" type="line"/>
      <point x="104" y="497" type="line"/>
      <point x="178" y="497" type="line"/>
      <point x="199" y="627" type="line"/>
    </contour>
  </outline>
</glyph>
<glyph name="colon" format="1">
  <advance width="600"/>
  <unicode hex="003A"/>
  <outline>
    <contour>
      <point x="323" y="389" type="curve"/>
      <point x="374" y="389"/>
      <point x="398" y="412"/>
      <point x="404" y="448" type="curve"/>
      <point x="406" y="460"/>
      <point x="408" y="472"/>
      <point x="408" y="480" type="curve"/>
      <point x="408" y="505"/>
      <point x="390" y="525"/>
      <point x="343" y="525" type="curve"/>
      <point x="292" y="525"/>
      <point x="268" y="502"/>
      <point x="262" y="466" type="curve"/>
      <point x="260" y="454"/>
      <point x="258" y="442"/>
      <point x="258" y="434" type="curve"/>
      <point x="258" y="409"/>
      <point x="276" y="389"/>
    </contour>
    <contour>
      <point x="257" y="-9" type="curve"/>
      <point x="308" y="-9"/>
      <point x="332" y="14"/>
      <point x="338" y="50" type="curve"/>
      <point x="340" y="62"/>
      <point x="342" y="74"/>
      <point x="342" y="82" type="curve"/>
      <point x="342" y="107"/>
      <point x="324" y="127"/>
      <point x="277" y="127" type="curve"/>
      <point x="226" y="127"/>
      <point x="202" y="104"/>
      <point x="196" y="68" type="curve"/>
      <point x="194" y="56"/>
      <point x="192" y="44"/>
      <point x="192" y="36" type="curve"/>
      <point x="192" y="11"/>
      <point x="210" y="-9"/>
    </contour>
  </outline>
</glyph>
<glyph name="I" format="1">
  <advance width="600"/>
  <unicode hex="0049"/>
  <outline>
    <contour>
      <point x="52" y="66" type="line"/>
      <point x="41" y="0" type="line"/>
      <point x="473" y="0" type="line"/>
      <point x="484" y="66" type="line"/>
      <point x="309" y="66" type="line"/>
      <point x="404" y="632" type="line"/>
      <point x="579" y="632" type="line"/>
      <point x="590" y="698" type="line"/>
      <point x="158" y="698" type="line"/>
      <point x="147" y="632" type="line"/>
      <point x="322" y="632" type="line"/>
      <point x="227" y="66" type="line"/>
    </contour>
  </outline>
</glyph>
<glyph name="J" format="1">
  <advance width="600"/>
  <unicode hex="004A"/>
  <outline>
    <contour>
      <point x="465" y="170" type="curve"/>
      <point x="553" y="698" type="line"/>
      <point x="217" y="698" type="line"/>
      <point x="205" y="626" type="line"/>
      <point x="459" y="626" type="line"/>
      <point x="387" y="195" type="line" smooth="yes"/>
      <point x="372" y="105"/>
      <point x="326" y="61"/>
      <point x="251" y="61" type="curve"/>
      <point x="166" y="61"/>
      <point x="144" y="109"/>
      <point x="137" y="168" type="curve"/>
      <point x="58" y="151" type="line"/>
      <point x="69" y="43"/>
      <point x="142" y="-12"/>
      <point x="249" y="-12" type="curve"/>
      <point x="362" y="-12"/>
      <point x="444" y="45"/>
    </contour>
  </outline>
</glyph>
<glyph name="K" format="1">
  <advance width="600"/>
  <unicode hex="004B"/>
  <outline>
    <contour>
      <point x="162" y="221" type="line"/>
      <point x="287" y="345" type="line"/>
      <point x="440" y="0" type="line"/>
      <point x="530" y="0" type="line"/>
      <point x="347" y="402" type="line"/>
      <point x="645" y="698" type="line"/>
      <point x="541" y="698" type="line"/>
      <point x="319" y="477" type="line"/>
      <point x="185" y="335" type="line"/>
      <point x="181" y="335" type="line"/>
      <point x="242" y="698" type="line"/>
      <point x="160" y="698" type="line"/>
      <point x="43" y="0" type="line"/>
      <point x="125" y="0" type="line"/>
    </contour>
  </outline>
</glyph>
<glyph name="asciitilde" format="1">
  <advance width="600"/>
  <unicode hex="007E"/>
  <outline>
    <contour>
      <point x="421" y="236" type="curve"/>
      <point x="480" y="236"/>
      <point x="518" y="257"/>
      <point x="551" y="288" type="curve"/>
      <point x="520" y="335" type="line"/>
      <point x="488" y="312"/>
      <point x="466" y="302"/>
      <point x="430" y="302" type="curve"/>
      <point x="388" y="302"/>
      <point x="360" y="316"/>
      <point x="323" y="335" type="curve"/>
      <point x="278" y="358"/>
      <point x="246" y="374"/>
      <point x="195" y="374" type="curve"/>
      <point x="136" y="374"/>
      <point x="98" y="353"/>
      <point x="65" y="322" type="curve"/>
      <point x="96" y="275" type="line"/>
      <point x="128" y="298"/>
      <point x="150" y="308"/>
      <point x="186" y="308" type="curve"/>
      <point x="228" y="308"/>
      <point x="256" y="294"/>
      <point x="293" y="275" type="curve"/>
      <point x="338" y="252"/>
      <point x="370" y="236"/>
    </contour>
  </outline>
</glyph>
<glyph name="degree" format="1">
  <advance width="600"/>
  <unicode hex="00B0"/>
  <outline>
    <contour>
      <point x="331" y="368" type="curve"/>
      <point x="440" y="368"/>
      <point x="518" y="451"/>
      <point x="518" y="556" type="curve"/>
      <point x="518" y="653"/>
      <point x="452" y="710"/>
      <point x="361" y="710" type="curve"/>
      <point x="252" y="710"/>
      <point x="174" y="627"/>
      <point x="174" y="522" type="curve"/>
      <point x="174" y="425"/>
      <point x="240" y="368"/>
    </contour>
    <contour>
      <point x="333" y="431" type="curve"/>
      <point x="276" y="431"/>
      <point x="243" y="468"/>
      <point x="243" y="525" type="curve"/>
      <point x="243" y="593"/>
      <point x="291" y="647"/>
      <point x="359" y="647" type="curve"/>
      <point x="416" y="647"/>
      <point x="449" y="610"/>
      <point x="449" y="553" type="curve"/>
      <point x="449" y="485"/>
      <point x="401" y="431"/>
    </contour>
  </outline>
</glyph>
<glyph name="paragraph" format="1">
  <advance width="600"/>
  <unicode hex="00B6"/>
  <outline>
    <contour>
      <point x="270" y="246" type="curve"/>
      <point x="204" y="-149" type="line"/>
      <point x="274" y="-149" type="line"/>
      <point x="405" y="636" type="line"/>
      <point x="495" y="636" type="line"/>
      <point x="364" y="-149" type="line"/>
      <point x="434" y="-149" type="line"/>
      <point x="576" y="698" type="line"/>
      <point x="345" y="698" type="line" smooth="yes"/>
      <point x="209" y="698"/>
      <point x="81" y="601"/>
      <point x="81" y="444" type="curve"/>
      <point x="81" y="321"/>
      <point x="160" y="246"/>
    </contour>
  </outline>
</glyph>
<glyph name="uni00B9" format="1">
  <advance width="600"/>
  <unicode hex="00B9"/>
  <outline>
    <contour>
      <point x="208" y="378" type="line"/>
      <point x="200" y="329" type="line"/>
      <point x="460" y="329" type="line"/>
      <point x="468" y="378" type="line"/>
      <point x="374" y="378" type="line"/>
      <point x="428" y="698" type="line"/>
      <point x="365" y="698" type="line"/>
      <point x="233" y="626" type="line"/>
      <point x="253" y="582" type="line"/>
      <point x="358" y="639" type="line"/>
      <point x="314" y="378" type="line"/>
    </contour>
  </outline>
</glyph>
<glyph name="onequarter" format="1">
  <advance width="600"/>
  <unicode hex="00BC"/>
  <outline>
    <contour>
      <point x="281" y="64" type="line"/>
      <point x="447" y="64" type="line"/>
      <point x="436" y="0" type="line"/>
      <point x="496" y="0" type="line"/>
      <point x="507" y="64" type="line"/>
      <point x="553" y="64" type="line"/>
      <point x="561" y="112" type="line"/>
      <point x="515" y="112" type="line"/>
      <point x="552" y="335" type="line"/>
      <point x="466" y="335" type="line"/>
      <point x="291" y="123" type="line"/>
    </contour>
    <contour>
      <point x="483" y="283" type="line"/>
      <point x="455" y="112" type="line"/>
      <point x="342" y="112" type="line"/>
      <point x="480" y="283" type="line"/>
    </contour>
    <contour>
      <point x="656" y="698" type="line"/>
      <point x="584" y="698" type="line"/>
      <point x="375" y="398" type="line"/>
      <point x="447" y="398" type="line"/>
    </contour>
    <contour>
      <point x="257" y="300" type="line"/>
      <point x="185" y="300" type="line"/>
      <point x="-24" y="0" type="line"/>
      <point x="48" y="0" type="line"/>
    </contour>
    <contour>
      <point x="159" y="413" type="line"/>
      <point x="66" y="413" type="line"/>
      <point x="58" y="363" type="line"/>
      <point x="295" y="363" type="line"/>
      <point x="304" y="413" type="line"/>
      <point x="221" y="413" type="line"/>
      <point x="269" y="698" type="line"/>
      <point x="202" y="698" type="line"/>
      <point x="86" y="642" type="line"/>
      <point x="103" y="596" type="line"/>
      <point x="198" y="642" type="line"/>
    </contour>
  </outline>
</glyph>
<glyph name="threequarters" format="1">
  <advance width="600"/>
  <unicode hex="00BE"/>
  <outline>
    <contour>
      <point x="281" y="64" type="line"/>
      <point x="447" y="64" type="line"/>
      <point x="436" y="0" type="line"/>
      <point x="496" y="0" type="line"/>
      <point x="507" y="64" type="line"/>
      <point x="553" y="64" type="line"/>
      <point x="561" y="112" type="line"/>
      <point x="515" y="112" type="line"/>
      <point x="552" y="335" type="line"/>
      <point x="466" y="335" type="line"/>
      <point x="291" y="123" type="line"/>
    </contour>
    <contour>
      <point x="483" y="283" type="line"/>
      <point x="455" y="112" type="line"/>
      <point x="342" y="112" type="line"/>
      <point x="480" y="283" type="line"/>
    </contour>
    <contour>
      <point x="656" y="698" type="line"/>
      <point x="584" y="698" type="line"/>
      <point x="375" y="398" type="line"/>
      <point x="447" y="398" type="line"/>
    </contour>
    <contour>
      <point x="257" y="300" type="line"/>
      <point x="185" y="300" type="line"/>
      <point x="-24" y="0" type="line"/>
      <point x="48" y="0" type="line"/>
    </contour>
    <contour>
      <point x="168" y="357" type="curve"/>
      <point x="246" y="357"/>
      <point x="302" y="402"/>
      <point x="302" y="468" type="curve"/>
      <point x="302" y="507"/>
      <point x="275" y="530"/>
      <point x="239" y="536" type="curve"/>
      <point x="239" y="540" type="line"/>
      <point x="283" y="548"/>
      <point x="323" y="577"/>
      <point x="323" y="627" type="curve"/>
      <point x="323" y="674"/>
      <point x="282" y="704"/>
      <point x="216" y="704" type="curve"/>
      <point x="160" y="704"/>
      <point x="125" y="682"/>
      <point x="95" y="647" type="curve"/>
      <point x="133" y="612" type="line"/>
      <point x="153" y="640"/>
      <point x="177" y="654"/>
      <point x="206" y="654" type="curve"/>
      <point x="240" y="654"/>
      <point x="258" y="639"/>
      <point x="258" y="618" type="curve"/>
      <point x="258" y="613"/>
      <point x="258" y="607"/>
      <point x="257" y="600" type="curve"/>
      <point x="254" y="578"/>
      <point x="228" y="560"/>
      <point x="187" y="560" type="curve"/>
      <point x="152" y="560" type="line"/>
      <point x="144" y="513" type="line"/>
      <point x="179" y="513" type="line" smooth="yes"/>
      <point x="219" y="513"/>
      <point x="239" y="498"/>
      <point x="239" y="472" type="curve"/>
      <point x="239" y="467"/>
      <point x="239" y="459"/>
      <point x="238" y="454" type="curve"/>
      <point x="232" y="424"/>
      <point x="207" y="407"/>
      <point x="168" y="407" type="curve"/>
      <point x="124" y="407"/>
      <point x="106" y="429"/>
      <point x="96" y="458" type="curve"/>
      <point x="47" y="428" type="line"/>
      <point x="62" y="391"/>
      <point x="95" y="357"/>
    </contour>
  </outline>
</glyph>
<glyph name="Agrave" format="1">
  <advance width="600"/>
  <unicode hex="00C0"/>
  <outline>
    <contour>
      <point x="377" y="949" type="line"/>
      <point x="304" y="918" type="line"/>
      <point x="378" y="755" type="line"/>
      <point x="429" y="775" type="line"/>
    </contour>
    <contour>
      <point x="417" y="199" type="line"/>
      <point x="442" y="0" type="line"/>
      <point x="528" y="0" type="line"/>
      <point x="431" y="698" type="line"/>
      <point x="321" y="698" type="line"/>
      <point x="-9" y="0" type="line"/>
      <point x="79" y="0" type="line"/>
      <point x="171" y="199" type="line"/>
    </contour>
    <contour>
      <point x="357" y="614" type="line"/>
      <point x="366" y="614" type="line"/>
      <point x="409" y="272" type="line"/>
      <point x="202" y="272" type="line"/>
    </contour>
  </outline>
</glyph>
<glyph name="Eacute" format="1">
  <advance width="600"/>
  <unicode hex="00C9"/>
  <outline>
    <contour>
      <point x="352" y="783" type="line"/>
      <point x="399" y="755" type="line"/>
      <point x="528" y="910" type="line"/>
      <point x="460" y="949" type="line"/>
    </contour>
    <contour>
      <point x="164" y="698" type="line"/>
      <point x="47" y="0" type="line"/>
      <point x="477" y="0" type="line"/>
      <point x="489" y="72" type="line"/>
      <point x="141" y="72" type="line"/>
      <point x="182" y="318" type="line"/>
      <point x="517" y="318" type="line"/>
      <point x="529" y="390" type="line"/>
      <point x="194" y="390" type="line"/>
      <point x="234" y="626" type="line"/>
      <point x="580" y="626" type="line"/>
      <point x="592" y="698" type="line"/>
    </contour>
  </outline>
</glyph>
<glyph name="igrave" format="1">
  <advance width="600"/>
  <unicode hex="00EC"/>
  <outline>
    <contour>
      <point x="319" y="779" type="line"/>
      <point x="245" y="752" type="line"/>
      <point x="320" y="585" type="line"/>
      <point x="371" y="605" type="line"/>
    </contour>
    <contour>
      <point x="272" y="-12" type="curve"/>
      <point x="317" y="-12"/>
      <point x="354" y="12"/>
      <point x="448" y="99" type="curve"/>
      <point x="539" y="183" type="line"/>
      <point x="492" y="227" type="line"/>
      <point x="295" y="57" type="line"/>
      <point x="272" y="66" type="line"/>
      <point x="359" y="516" type="line"/>
      <point x="93" y="516" type="line"/>
      <point x="82" y="449" type="line"/>
      <point x="268" y="449" type="line"/>
      <point x="200" y="97" type="line" smooth="yes"/>
      <point x="198" y="85"/>
      <point x="195" y="70"/>
      <point x="195" y="57" type="curve"/>
      <point x="195" y="17"/>
      <point x="222" y="-12"/>
    </contour>
  </outline>
</glyph>
<glyph name="ntilde" format="1">
  <advance width="600"/>
  <unicode hex="00F1"/>
  <outline>
    <contour>
      <point x="428" y="612" type="curve"/>
      <point x="470" y="612"/>
      <point x="505" y="638"/>
      <point x="527" y="664" type="curve"/>
      <point x="499" y="705" type="line"/>
      <point x="476" y="687"/>
      <point x="457" y="676"/>
      <point x="436" y="676" type="curve"/>
      <point x="417" y="676"/>
      <point x="395" y="685"/>
      <point x="372" y="699" type="curve"/>
      <point x="352" y="711"/>
      <point x="329" y="727"/>
      <point x="296" y="727" type="curve"/>
      <point x="254" y="727"/>
      <point x="219" y="701"/>
      <point x="197" y="675" type="curve"/>
      <point x="225" y="634" type="line"/>
      <point x="248" y="652"/>
      <point x="267" y="663"/>
      <point x="288" y="663" type="curve"/>
      <point x="307" y="663"/>
      <point x="329" y="654"/>
      <point x="352" y="640" type="curve"/>
      <point x="372" y="628"/>
      <point x="395" y="612"/>
    </contour>
    <contour>
      <point x="145" y="516" type="line"/>
      <point x="59" y="0" type="line"/>
      <point x="137" y="0" type="line"/>
      <point x="185" y="285" type="line" smooth="yes"/>
      <point x="195" y="344"/>
      <point x="233" y="390"/>
      <point x="244" y="403" type="curve"/>
      <point x="273" y="437"/>
      <point x="308" y="459"/>
      <point x="353" y="459" type="curve"/>
      <point x="411" y="459"/>
      <point x="439" y="421"/>
      <point x="439" y="360" type="curve"/>
      <point x="439" y="349"/>
      <point x="438" y="329"/>
      <point x="434" y="305" type="curve"/>
      <point x="383" y="0" type="line"/>
      <point x="461" y="0" type="line"/>
      <point x="513" y="312" type="line" smooth="yes"/>
      <point x="517" y="335"/>
      <point x="519" y="359"/>
      <point x="519" y="379" type="curve"/>
      <point x="519" y="473"/>
      <point x="465" y="528"/>
      <point x="379" y="528" type="curve"/>
      <point x="296" y="528"/>
      <point x="245" y="476"/>
      <point x="207" y="394" type="curve"/>
      <point x="203" y="394" type="line"/>
      <point x="223" y="516" type="line"/>
    </contour>
  </outline>
</glyph>
<glyph name="otilde" format="1">
  <advance width="600"/>
  <unicode hex="00F5"/>
  <outline>
    <contour>
      <point x="434" y="612" type="curve"/>
      <point x="476" y="612"/>
      <point x="511" y="638"/>
      <point x="533" y="664" type="curve"/>
      <point x="505" y="705" type="line"/>
      <point x="482" y="687"/>
      <point x="463" y="676"/>
      <point x="442" y="676" type="curve"/>
      <point x="423" y="676"/>
      <point x="401" y="685"/>
      <point x="378" y="699" type="curve"/>
      <point x="358" y="711"/>
      <point x="335" y="727"/>
      <point x="302" y="727" type="curve"/>
      <point x="260" y="727"/>
      <point x="225" y="701"/>
      <point x="203" y="675" type="curve"/>
      <point x="231" y="634" type="line"/>
      <point x="254" y="652"/>
      <point x="273" y="663"/>
      <point x="294" y="663" type="curve"/>
      <point x="313" y="663"/>
      <point x="335" y="654"/>
      <point x="358" y="640" type="curve"/>
      <point x="378" y="628"/>
      <point x="401" y="612"/>
    </contour>
    <contour>
      <point x="265" y="-12" type="curve"/>
      <point x="417" y="-12"/>
      <point x="536" y="113"/>
      <point x="536" y="310" type="curve"/>
      <point x="536" y="439"/>
      <point x="468" y="528"/>
      <point x="334" y="528" type="curve"/>
      <point x="183" y="528"/>
      <point x="64" y="403"/>
      <point x="64" y="206" type="curve"/>
      <point x="64" y="77"/>
      <point x="133" y="-12"/>
    </contour>
    <contour>
      <point x="269" y="56" type="curve"/>
      <point x="192" y="56"/>
      <point x="143" y="96"/>
      <point x="143" y="183" type="curve"/>
      <point x="143" y="195"/>
      <point x="144" y="210"/>
      <point x="148" y="234" type="curve"/>
      <point x="158" y="294" type="line" smooth="yes"/>
      <point x="175" y="396"/>
      <point x="234" y="460"/>
      <point x="331" y="460" type="curve"/>
      <point x="408" y="460"/>
      <point x="457" y="420"/>
      <point x="457" y="333" type="curve"/>
      <point x="457" y="321"/>
      <point x="456" y="306"/>
      <point x="452" y="282" type="curve"/>
      <point x="442" y="222" type="line" smooth="yes"/>
      <point x="425" y="120"/>
      <point x="366" y="56"/>
    </contour>
  </outline>
</glyph>
<glyph name="Abreve" format="1">
  <advance width="600"/>
  <unicode hex="0102"/>
  <outline>
    <contour>
      <point x="389" y="765" type="curve"/>
      <point x="494" y="765"/>
      <point x="541" y="854"/>
      <point x="570" y="916" type="curve"/>
      <point x="520" y="937" type="line"/>
      <point x="493" y="903" type="line" smooth="yes"/>
      <point x="450" y="849"/>
      <point x="433" y="828"/>
      <point x="391" y="828" type="curve"/>
      <point x="346" y="828"/>
      <point x="333" y="853"/>
      <point x="311" y="903" type="curve"/>
      <point x="296" y="937" type="line"/>
      <point x="248" y="916" type="line"/>
      <point x="257" y="855"/>
      <point x="283" y="765"/>
    </contour>
    <contour>
      <point x="417" y="199" type="line"/>
      <point x="442" y="0" type="line"/>
      <point x="528" y="0" type="line"/>
      <point x="431" y="698" type="line"/>
      <point x="321" y="698" type="line"/>
      <point x="-9" y="0" type="line"/>
      <point x="79" y="0" type="line"/>
      <point x="171" y="199" type="line"/>
    </contour>
    <contour>
      <point x="357" y="614" type="line"/>
      <point x="366" y="614" type="line"/>
      <point x="409" y="272" type="line"/>
      <point x="202" y="272" type="line"/>
    </contour>
  </outline>
</glyph>
<glyph name="Cacute" format="1">
  <advance width="600"/>
  <unicode hex="0106"/>
  <outline>
    <contour>
      <point x="365" y="783" type="line"/>
      <point x="412" y="755" type="line"/>
      <point x="541" y="910" type="line"/>
      <point x="473" y="949" type="line"/>
    </contour>
    <contour>
      <point x="287" y="-12" type="curve"/>
      <point x="412" y="-12"/>
      <point x="479" y="55"/>
      <point x="532" y="165" type="curve"/>
      <point x="467" y="198" type="line"/>
      <point x="414" y="104"/>
      <point x="376" y="60"/>
      <point x="296" y="60" type="curve"/>
      <point x="200" y="60"/>
      <point x="160" y="123"/>
      <point x="160" y="219" type="curve"/>
      <point x="160" y="247"/>
      <point x="163" y="277"/>
      <point x="168" y="307" type="curve"/>
      <point x="184" y="403" type="line" smooth="yes"/>
      <point x="208" y="547"/>
      <point x="273" y="638"/>
      <point x="385" y="638" type="curve"/>
      <point x="468" y="638"/>
      <point x="494" y="588"/>
      <point x="508" y="528" type="curve"/>
      <point x="582" y="552" type="line"/>
      <point x="567" y="629"/>
      <point x="520" y="710"/>
      <point x="391" y="710" type="curve"/>
      <point x="138" y="710"/>
      <point x="78" y="401"/>
      <point x="78" y="240" type="curve"/>
      <point x="78" y="78"/>
      <point x="142" y="-12"/>
    </contour>
  </outline>
</glyph>
<glyph name="ccircumflex" format="1">
  <advance width="600"/>
  <unicode hex="0109"/>
  <outline>
    <contour>
      <point x="515" y="618" type="line"/>
      <point x="428" y="765" type="line"/>
      <point x="330" y="765" type="line"/>
      <point x="197" y="624" type="line"/>
      <point x="236" y="591" type="line"/>
      <point x="373" y="708" type="line"/>
      <point x="469" y="591" type="line"/>
    </contour>
    <contour>
      <point x="270" y="-12" type="curve"/>
      <point x="378" y="-12"/>
      <point x="443" y="44"/>
      <point x="508" y="149" type="curve"/>
      <point x="452" y="182" type="line"/>
      <point x="370" y="69"/>
      <point x="326" y="56"/>
      <point x="280" y="56" type="curve"/>
      <point x="205" y="56"/>
      <point x="154" y="97"/>
      <point x="154" y="185" type="curve"/>
      <point x="154" y="198"/>
      <point x="155" y="209"/>
      <point x="159" y="233" type="curve"/>
      <point x="169" y="293" type="line" smooth="yes"/>
      <point x="187" y="401"/>
      <point x="244" y="460"/>
      <point x="332" y="460" type="curve"/>
      <point x="396" y="460"/>
      <point x="434" y="441"/>
      <point x="454" y="378" type="curve"/>
      <point x="521" y="404" type="line"/>
      <point x="503" y="472"/>
      <point x="450" y="528"/>
      <point x="341" y="528" type="curve"/>
      <point x="194" y="528"/>
      <point x="75" y="403"/>
      <point x="75" y="206" type="curve"/>
      <point x="75" y="77"/>
      <point x="142" y="-12"/>
    </contour>
  </outline>
</glyph>
<glyph name="Cdotaccent" format="1">
  <advance width="600"/>
  <unicode hex="010A"/>
  <outline>
    <contour>
      <point x="409" y="782" type="curve"/>
      <point x="453" y="782"/>
      <point x="471" y="806"/>
      <point x="475" y="830" type="curve"/>
      <point x="476" y="836"/>
      <point x="479" y="852"/>
      <point x="479" y="859" type="curve"/>
      <point x="479" y="880"/>
      <point x="464" y="899"/>
      <point x="421" y="899" type="curve"/>
      <point x="377" y="899"/>
      <point x="359" y="875"/>
      <point x="355" y="851" type="curve"/>
      <point x="354" y="845"/>
      <point x="351" y="829"/>
      <point x="351" y="822" type="curve"/>
      <point x="351" y="801"/>
      <point x="366" y="782"/>
    </contour>
    <contour>
      <point x="287" y="-12" type="curve"/>
      <point x="412" y="-12"/>
      <point x="479" y="55"/>
      <point x="532" y="165" type="curve"/>
      <point x="467" y="198" type="line"/>
      <point x="414" y="104"/>
      <point x="376" y="60"/>
      <point x="296" y="60" type="curve"/>
      <point x="200" y="60"/>
      <point x="160" y="123"/>
      <point x="160" y="219" type="curve"/>
      <point x="160" y="247"/>
      <point x="163" y="277"/>
      <point x="168" y="307" type="curve"/>
      <point x="184" y="403" type="line" smooth="yes"/>
      <point x="208" y="547"/>
      <point x="273" y="638"/>
      <point x="385" y="638" type="curve"/>
      <point x="468" y="638"/>
      <point x="494" y="588"/>
      <point x="508" y="528" type="curve"/>
      <point x="582" y="552" type="line"/>
      <point x="567" y="629"/>
      <point x="520" y="710"/>
      <point x="391" y="710" type="curve"/>
      <point x="138" y="710"/>
      <point x="78" y="401"/>
      <point x="78" y="240" type="curve"/>
      <point x="78" y="78"/>
      <point x="142" y="-12"/>
    </contour>
  </outline>
</glyph>
<glyph name="ccaron" format="1">
  <advance width="600"/>
  <unicode hex="010D"/>
  <outline>
    <contour>
      <point x="216" y="746" type="line"/>
      <point x="303" y="599" type="line"/>
      <point x="401" y="599" type="line"/>
      <point x="534" y="740" type="line"/>
      <point x="495" y="773" type="line"/>
      <point x="358" y="656" type="line"/>
      <point x="262" y="773" type="line"/>
    </contour>
    <contour>
      <point x="270" y="-12" type="curve"/>
      <point x="378" y="-12"/>
      <point x="443" y="44"/>
      <point x="508" y="149" type="curve"/>
      <point x="452" y="182" type="line"/>
      <point x="370" y="69"/>
      <point x="326" y="56"/>
      <point x="280" y="56" type="curve"/>
      <point x="205" y="56"/>
      <point x="154" y="97"/>
      <point x="154" y="185" type="curve"/>
      <point x="154" y="198"/>
      <point x="155" y="209"/>
      <point x="159" y="233" type="curve"/>
      <point x="169" y="293" type="line" smooth="yes"/>
      <point x="187" y="401"/>
      <point x="244" y="460"/>
      <point x="332" y="460" type="curve"/>
      <point x="396" y="460"/>
      <point x="434" y="441"/>
      <point x="454" y="378" type="curve"/>
      <point x="521" y="404" type="line"/>
      <point x="503" y="472"/>
      <point x="450" y="528"/>
      <point x="341" y="528" type="curve"/>
      <point x="194" y="528"/>
      <point x="75" y="403"/>
      <point x="75" y="206" type="curve"/>
      <point x="75" y="77"/>
      <point x="142" y="-12"/>
    </contour>
  </outline>
</glyph>
<glyph name="Emacron" format="1">
  <advance width="600"/>
  <unicode hex="0112"/>
  <outline>
    <contour>
      <point x="547" y="875" type="line"/>
      <point x="270" y="875" type="line"/>
      <point x="259" y="808" type="line"/>
      <point x="536" y="808" type="line"/>
    </contour>
    <contour>
      <point x="164" y="698" type="line"/>
      <point x="47" y="0" type="line"/>
      <point x="477" y="0" type="line"/>
      <point x="489" y="72" type="line"/>
      <point x="141" y="72" type="line"/>
      <point x="182" y="318" type="line"/>
      <point x="517" y="318" type="line"/>
      <point x="529" y="390" type="line"/>
      <point x="194" y="390" type="line"/>
      <point x="234" y="626" type="line"/>
      <point x="580" y="626" type="line"/>
      <point x="592" y="698" type="line"/>
    </contour>
  </outline>
</glyph>
<glyph name="Gcircumflex" format="1">
  <advance width="600"/>
  <unicode hex="011C"/>
  <outline>
    <contour>
      <point x="543" y="788" type="line"/>
      <point x="456" y="935" type="line"/>
      <point x="358" y="935" type="line"/>
      <point x="225" y="794" type="line"/>
      <point x="264" y="761" type="line"/>
      <point x="401" y="878" type="line"/>
      <point x="497" y="761" type="line"/>
    </contour>
    <contour>
      <point x="416" y="102" type="curve"/>
      <point x="421" y="102" type="line"/>
      <point x="404" y="0" type="line"/>
      <point x="480" y="0" type="line"/>
      <point x="537" y="344" type="line"/>
      <point x="315" y="344" type="line"/>
      <point x="304" y="278" type="line"/>
      <point x="450" y="278" type="line"/>
      <point x="441" y="224" type="line" smooth="yes"/>
      <point x="426" y="134"/>
      <point x="367" y="58"/>
      <point x="272" y="58" type="curve"/>
      <point x="184" y="58"/>
      <point x="150" y="123"/>
      <point x="150" y="225" type="curve"/>
      <point x="150" y="242"/>
      <point x="151" y="276"/>
      <point x="156" y="306" type="curve"/>
      <point x="172" y="402" type="line" smooth="yes"/>
      <point x="196" y="545"/>
      <point x="259" y="638"/>
      <point x="373" y="638" type="curve"/>
      <point x="456" y="638"/>
      <point x="482" y="588"/>
      <point x="496" y="528" type="curve"/>
      <point x="570" y="552" type="line"/>
      <point x="555" y="629"/>
      <point x="508" y="710"/>
      <point x="379" y="710" type="curve"/>
      <point x="127" y="710"/>
      <point x="66" y="401"/>
      <point x="66" y="240" type="curve"/>
      <point x="66" y="74"/>
      <point x="128" y="-12"/>
      <point x="246" y="-12" type="curve"/>
      <point x="337" y="-12"/>
      <point x="379" y="40"/>
    </contour>
  </outline>
</glyph>
<glyph name="Gbreve" format="1">
  <advance width="600"/>
  <unicode hex="011E"/>
  <outline>
    <contour>
      <point x="382" y="765" type="curve"/>
      <point x="487" y="765"/>
      <point x="534" y="854"/>
      <point x="563" y="916" type="curve"/>
      <point x="513" y="937" type="line"/>
      <point x="486" y="903" type="line" smooth="yes"/>
      <point x="443" y="849"/>
      <point x="426" y="828"/>
      <point x="384" y="828" type="curve"/>
      <point x="339" y="828"/>
      <point x="326" y="853"/>
      <point x="304" y="903" type="curve"/>
      <point x="289" y="937" type="line"/>
      <point x="241" y="916" type="line"/>
      <point x="250" y="855"/>
      <point x="276" y="765"/>
    </contour>
    <contour>
      <point x="416" y="102" type="curve"/>
      <point x="421" y="102" type="line"/>
      <point x="404" y="0" type="line"/>
      <point x="480" y="0" type="line"/>
      <point x="537" y="344" type="line"/>
      <point x="315" y="344" type="line"/>
      <point x="304" y="278" type="line"/>
      <point x="450" y="278" type="line"/>
      <point x="441" y="224" type="line" smooth="yes"/>
      <point x="426" y="134"/>
      <point x="367" y="58"/>
      <point x="272" y="58" type="curve"/>
      <point x="184" y="58"/>
      <point x="150" y="123"/>
      <point x="150" y="225" type="curve"/>
      <point x="150" y="242"/>
      <point x="151" y="276"/>
      <point x="156" y="306" type="curve"/>
      <point x="172" y="402" type="line" smooth="yes"/>
      <point x="196" y="545"/>
      <point x="259" y="638"/>
      <point x="373" y="638" type="curve"/>
      <point x="456" y="638"/>
      <point x="482" y="588"/>
      <point x="496" y="528" type="curve"/>
      <point x="570" y="552" type="line"/>
      <point x="555" y="629"/>
      <point x="508" y="710"/>
      <point x="379" y="710" type="curve"/>
      <point x="127" y="710"/>
      <point x="66" y="401"/>
      <point x="66" y="240" type="curve"/>
      <point x="66" y="74"/>
      <point x="128" y="-12"/>
      <point x="246" y="-12" type="curve"/>
      <point x="337" y="-12"/>
      <point x="379" y="40"/>
    </contour>
  </outline>
</glyph>
<glyph name="gbreve" format="1">
  <advance width="600"/>
  <unicode hex="011F"/>
  <outline>
    <contour>
      <point x="343" y="595" type="curve"/>
      <point x="448" y="595"/>
      <point x="495" y="684"/>
      <point x="524" y="746" type="curve"/>
      <point x="474" y="767" type="line"/>
      <point x="447" y="733" type="line" smooth="yes"/>
      <point x="404" y="679"/>
      <point x="387" y="658"/>
      <point x="345" y="658" type="curve"/>
      <point x="300" y="658"/>
      <point x="287" y="683"/>
      <point x="265" y="733" type="curve"/>
      <point x="250" y="767" type="line"/>
      <point x="202" y="746" type="line"/>
      <point x="211" y="685"/>
      <point x="237" y="595"/>
    </contour>
    <contour>
      <point x="212" y="-212" type="curve"/>
      <point x="341" y="-212"/>
      <point x="435" y="-152"/>
      <point x="461" y="0" type="curve"/>
      <point x="547" y="516" type="line"/>
      <point x="469" y="516" type="line"/>
      <point x="454" y="426" type="line"/>
      <point x="451" y="426" type="line"/>
      <point x="429" y="493"/>
      <point x="376" y="528"/>
      <point x="300" y="528" type="curve"/>
      <point x="122" y="528"/>
      <point x="57" y="334"/>
      <point x="57" y="201" type="curve"/>
      <point x="57" y="75"/>
      <point x="113" y="5"/>
      <point x="219" y="5" type="curve"/>
      <point x="310" y="5"/>
      <point x="364" y="56"/>
      <point x="403" y="139" type="curve"/>
      <point x="407" y="139" type="line"/>
      <point x="386" y="15" type="line" smooth="yes"/>
      <point x="367" y="-99"/>
      <point x="311" y="-143"/>
      <point x="217" y="-143" type="curve"/>
      <point x="154" y="-143"/>
      <point x="112" y="-123"/>
      <point x="85" y="-89" type="curve"/>
      <point x="31" y="-141" type="line"/>
      <point x="68" y="-187"/>
      <point x="129" y="-212"/>
    </contour>
    <contour>
      <point x="246" y="74" type="curve"/>
      <point x="174" y="74"/>
      <point x="137" y="119"/>
      <point x="137" y="201" type="curve"/>
      <point x="137" y="215"/>
      <point x="139" y="227"/>
      <point x="142" y="245" type="curve"/>
      <point x="151" y="299" type="line" smooth="yes"/>
      <point x="167" y="395"/>
      <point x="226" y="459"/>
      <point x="323" y="459" type="curve"/>
      <point x="400" y="459"/>
      <point x="453" y="418"/>
      <point x="441" y="346" type="curve"/>
      <point x="425" y="248" type="line" smooth="yes"/>
      <point x="416" y="192"/>
      <point x="387" y="152"/>
      <point x="368" y="131" type="curve"/>
      <point x="331" y="90"/>
      <point x="289" y="74"/>
    </contour>
  </outline>
</glyph>
<glyph name="Hcircumflex" format="1">
  <advance width="600"/>
  <unicode hex="0124"/>
  <outline>
    <contour>
      <point x="548" y="788" type="line"/>
      <point x="461" y="935" type="line"/>
      <point x="363" y="935" type="line"/>
      <point x="230" y="794" type="line"/>
      <point x="269" y="761" type="line"/>
      <point x="406" y="878" type="line"/>
      <point x="502" y="761" type="line"/>
    </contour>
    <contour>
      <point x="174" y="318" type="line"/>
      <point x="446" y="318" type="line"/>
      <point x="393" y="0" type="line"/>
      <point x="475" y="0" type="line"/>
      <point x="592" y="698" type="line"/>
      <point x="510" y="698" type="line"/>
      <point x="458" y="390" type="line"/>
      <point x="186" y="390" type="line"/>
      <point x="238" y="698" type="line"/>
      <point x="156" y="698" type="line"/>
      <point x="39" y="0" type="line"/>
      <point x="121" y="0" type="line"/>
    </contour>
  </outline>
</glyph>
<glyph name="itilde" format="1">
  <advance width="600"/>
  <unicode hex="0129"/>
  <outline>
    <contour>
      <point x="407" y="612" type="curve"/>
      <point x="449" y="612"/>
      <point x="484" y="638"/>
      <point x="506" y="664" type="curve"/>
      <point x="478" y="705" type="line"/>
      <point x="455" y="687"/>
      <point x="436" y="676"/>
      <point x="415" y="676" type="curve"/>
      <point x="396" y="676"/>
      <point x="374" y="685"/>
      <point x="351" y="699" type="curve"/>
      <point x="331" y="711"/>
      <point x="308" y="727"/>
      <point x="275" y="727" type="curve"/>
      <point x="233" y="727"/>
      <point x="198" y="701"/>
      <point x="176" y="675" type="curve"/>
      <point x="204" y="634" type="line"/>
      <point x="227" y="652"/>
      <point x="246" y="663"/>
      <point x="267" y="663" type="curve"/>
      <point x="286" y="663"/>
      <point x="308" y="654"/>
      <point x="331" y="640" type="curve"/>
      <point x="351" y="628"/>
      <point x="374" y="612"/>
    </contour>
    <contour>
      <point x="272" y="-12" type="curve"/>
      <point x="317" y="-12"/>
      <point x="354" y="12"/>
      <point x="448" y="99" type="curve"/>
      <point x="539" y="183" type="line"/>
      <point x="492" y="227" type="line"/>
      <point x="295" y="57" type="line"/>
      <point x="272" y="66" type="line"/>
      <point x="359" y="516" type="line"/>
      <point x="93" y="516" type="line"/>
      <point x="82" y="449" type="line"/>
      <point x="268" y="449" type="line"/>
      <point x="200" y="97" type="line" smooth="yes"/>
      <point x="198" y="85"/>
      <point x="195" y="70"/>
      <point x="195" y="57" type="curve"/>
      <point x="195" y="17"/>
      <point x="222" y="-12"/>
    </contour>
  </outline>
</glyph>
<glyph name="iogonek" format="1">
  <advance width="600"/>
  <unicode hex="012F"/>
  <outline>
    <contour>
      <point x="264" y="-207" type="curve"/>
      <point x="311" y="-207"/>
      <point x="344" y="-189"/>
      <point x="362" y="-170" type="curve"/>
      <point x="324" y="-127" type="line"/>
      <point x="305" y="-144"/>
      <point x="285" y="-153"/>
      <point x="268" y="-153" type="curve"/>
      <point x="250" y="-153"/>
      <point x="234" y="-144"/>
      <point x="234" y="-122" type="curve"/>
      <point x="234" y="-98"/>
      <point x="252" y="-68"/>
      <point x="354" y="21" type="curve"/>
      <point x="539" y="183" type="line"/>
      <point x="492" y="227" type="line"/>
      <point x="295" y="57" type="line"/>
      <point x="272" y="66" type="line"/>
      <point x="359" y="516" type="line"/>
      <point x="93" y="516" type="line"/>
      <point x="82" y="449" type="line"/>
      <point x="268" y="449" type="line"/>
      <point x="200" y="97" type="line" smooth="yes"/>
      <point x="198" y="85"/>
      <point x="195" y="70"/>
      <point x="195" y="57" type="curve"/>
      <point x="195" y="24"/>
      <point x="214" y="-10"/>
      <point x="253" y="-10" type="curve"/>
      <point x="268" y="-10" type="line"/>
      <point x="269" y="-15" type="line"/>
      <point x="209" y="-47"/>
      <point x="166" y="-81"/>
      <point x="166" y="-132" type="curve"/>
      <point x="166" y="-186"/>
      <point x="213" y="-207"/>
    </contour>
    <contour>
      <point x="340" y="631" type="curve"/>
      <point x="380" y="631"/>
      <point x="401" y="649"/>
      <point x="406" y="679" type="curve"/>
      <point x="408" y="691"/>
      <point x="410" y="700"/>
      <point x="410" y="708" type="curve"/>
      <point x="410" y="729"/>
      <point x="395" y="748"/>
      <point x="352" y="748" type="curve"/>
      <point x="312" y="748"/>
      <point x="291" y="730"/>
      <point x="286" y="700" type="curve"/>
      <point x="284" y="688"/>
      <point x="282" y="679"/>
      <point x="282" y="671" type="curve"/>
      <point x="282" y="650"/>
      <point x="297" y="631"/>
    </contour>
  </outline>
</glyph>
<glyph name="Idotaccent" format="1">
  <advance width="600"/>
  <unicode hex="0130"/>
  <outline>
    <contour>
      <point x="389" y="782" type="curve"/>
      <point x="433" y="782"/>
      <point x="451" y="806"/>
      <point x="455" y="830" type="curve"/>
      <point x="456" y="836"/>
      <point x="459" y="852"/>
      <point x="459" y="859" type="curve"/>
      <point x="459" y="880"/>
      <point x="444" y="899"/>
      <point x="401" y="899" type="curve"/>
      <point x="357" y="899"/>
      <point x="339" y="875"/>
      <point x="335" y="851" type="curve"/>
      <point x="334" y="845"/>
      <point x="331" y="829"/>
      <point x="331" y="822" type="curve"/>
      <point x="331" y="801"/>
      <point x="346" y="782"/>
    </contour>
    <contour>
      <point x="52" y="66" type="line"/>
      <point x="41" y="0" type="line"/>
      <point x="473" y="0" type="line"/>
      <point x="484" y="66" type="line"/>
      <point x="309" y="66" type="line"/>
      <point x="404" y="632" type="line"/>
      <point x="579" y="632" type="line"/>
      <point x="590" y="698" type="line"/>
      <point x="158" y="698" type="line"/>
      <point x="147" y="632" type="line"/>
      <point x="322" y="632" type="line"/>
      <point x="227" y="66" type="line"/>
    </contour>
  </outline>
</glyph>
<glyph name="uni013B" format="1">
  <advance width="600"/>
  <unicode hex="013B"/>
  <outline>
    <contour>
      <point x="327" y="-64" type="line"/>
      <point x="219" y="-64" type="line"/>
      <point x="164" y="-249" type="line"/>
      <point x="225" y="-249" type="line"/>
    </contour>
    <contour>
      <point x="195" y="698" type="line"/>
      <point x="78" y="0" type="line"/>
      <point x="491" y="0" type="line"/>
      <point x="503" y="72" type="line"/>
      <point x="172" y="72" type="line"/>
      <point x="276" y="698" type="line"/>
    </contour>
  </outline>
</glyph>
<glyph name="Ldot" format="1">
  <advance width="600"/>
  <unicode hex="013F"/>
  <outline>
    <contour>
      <point x="441" y="268" type="curve"/>
      <point x="485" y="268"/>
      <point x="503" y="292"/>
      <point x="507" y="316" type="curve"/>
      <point x="508" y="322"/>
      <point x="511" y="338"/>
      <point x="511" y="345" type="curve"/>
      <point x="511" y="366"/>
      <point x="496" y="385"/>
      <point x="453" y="385" type="curve"/>
      <point x="409" y="385"/>
      <point x="391" y="361"/>
      <point x="387" y="337" type="curve"/>
      <point x="386" y="331"/>
      <point x="383" y="315"/>
      <point x="383" y="308" type="curve"/>
      <point x="383" y="287"/>
      <point x="398" y="268"/>
    </contour>
    <contour>
      <point x="195" y="698" type="line"/>
      <point x="78" y="0" type="line"/>
      <point x="491" y="0" type="line"/>
      <point x="503" y="72" type="line"/>
      <point x="172" y="72" type="line"/>
      <point x="276" y="698" type="line"/>
    </contour>
  </outline>
</glyph>
<glyph name="uni0145" format="1">
  <advance width="600"/>
  <unicode hex="0145"/>
  <outline>
    <contour>
      <point x="298" y="-64" type="line"/>
      <point x="190" y="-64" type="line"/>
      <point x="135" y="-249" type="line"/>
      <point x="196" y="-249" type="line"/>
    </contour>
    <contour>
      <point x="216" y="602" type="line"/>
      <point x="223" y="602" type="line"/>
      <point x="356" y="0" type="line"/>
      <point x="475" y="0" type="line"/>
      <point x="592" y="698" type="line"/>
      <point x="516" y="698" type="line"/>
      <point x="415" y="96" type="line"/>
      <point x="408" y="96" type="line"/>
      <point x="275" y="698" type="line"/>
      <point x="156" y="698" type="line"/>
      <point x="39" y="0" type="line"/>
      <point x="115" y="0" type="line"/>
    </contour>
  </outline>
</glyph>
<glyph name="Ncaron" format="1">
  <advance width="600"/>
  <unicode hex="0147"/>
  <outline>
    <contour>
      <point x="248" y="916" type="line"/>
      <point x="335" y="769" type="line"/>
      <point x="433" y="769" type="line"/>
      <point x="566" y="910" type="line"/>
      <point x="527" y="943" type="line"/>
      <point x="390" y="826" type="line"/>
      <point x="294" y="943" type="line"/>
    </contour>
    <contour>
      <point x="216" y="602" type="line"/>
      <point x="223" y="602" type="line"/>
      <point x="356" y="0" type="line"/>
      <point x="475" y="0" type="line"/>
      <point x="592" y="698" type="line"/>
      <point x="516" y="698" type="line"/>
      <point x="415" y="96" type="line"/>
      <point x="408" y="96" type="line"/>
      <point x="275" y="698" type="line"/>
      <point x="156" y="698" type="line"/>
      <point x="39" y="0" type="line"/>
      <point x="115" y="0" type="line"/>
    </contour>
  </outline>
</glyph>
<glyph name="uni0156" format="1">
  <advance width="600"/>
  <unicode hex="0156"/>
  <outline>
    <contour>
      <point x="309" y="-64" type="line"/>
      <point x="201" y="-64" type="line"/>
      <point x="146" y="-249" type="line"/>
      <point x="207" y="-249" type="line"/>
    </contour>
    <contour>
      <point x="47" y="0" type="line"/>
      <point x="129" y="0" type="line"/>
      <point x="179" y="299" type="line"/>
      <point x="293" y="299" type="line"/>
      <point x="412" y="0" type="line"/>
      <point x="501" y="0" type="line"/>
      <point x="374" y="302" type="line"/>
      <point x="506" y="311"/>
      <point x="584" y="395"/>
      <point x="584" y="534" type="curve"/>
      <point x="584" y="631"/>
      <point x="530" y="698"/>
      <point x="413" y="698" type="curve"/>
      <point x="164" y="698" type="line"/>
    </contour>
    <contour>
      <point x="363" y="369" type="curve"/>
      <point x="191" y="369" type="line"/>
      <point x="234" y="626" type="line"/>
      <point x="403" y="626" type="line" smooth="yes"/>
      <point x="464" y="626"/>
      <point x="500" y="598"/>
      <point x="500" y="543" type="curve"/>
      <point x="500" y="530"/>
      <point x="499" y="516"/>
      <point x="497" y="504" type="curve"/>
      <point x="491" y="468" type="line" smooth="yes"/>
      <point x="480" y="402"/>
      <point x="431" y="369"/>
    </contour>
  </outline>
</glyph>
<glyph name="Ubreve" format="1">
  <advance width="600"/>
  <unicode hex="016C"/>
  <outline>
    <contour>
      <point x="382" y="765" type="curve"/>
      <point x="487" y="765"/>
      <point x="534" y="854"/>
      <point x="563" y="916" type="curve"/>
      <point x="513" y="937" type="line"/>
      <point x="486" y="903" type="line" smooth="yes"/>
      <point x="443" y="849"/>
      <point x="426" y="828"/>
      <point x="384" y="828" type="curve"/>
      <point x="339" y="828"/>
      <point x="326" y="853"/>
      <point x="304" y="903" type="curve"/>
      <point x="289" y="937" type="line"/>
      <point x="241" y="916" type="line"/>
      <point x="250" y="855"/>
      <point x="276" y="765"/>
    </contour>
    <contour>
      <point x="169" y="298" type="curve"/>
      <point x="236" y="698" type="line"/>
      <point x="154" y="698" type="line"/>
      <point x="91" y="323" type="line" smooth="yes"/>
      <point x="82" y="269"/>
      <point x="73" y="209"/>
      <point x="73" y="166" type="curve"/>
      <point x="73" y="52"/>
      <point x="126" y="-12"/>
      <point x="269" y="-12" type="curve"/>
      <point x="452" y="-12"/>
      <point x="489" y="84"/>
      <point x="524" y="291" type="curve"/>
      <point x="592" y="698" type="line"/>
      <point x="510" y="698" type="line"/>
      <point x="439" y="274" type="line" smooth="yes"/>
      <point x="416" y="137"/>
      <point x="398" y="60"/>
      <point x="266" y="60" type="curve"/>
      <point x="177" y="60"/>
      <point x="154" y="104"/>
      <point x="154" y="173" type="curve"/>
      <point x="154" y="198"/>
      <point x="157" y="226"/>
    </contour>
  </outline>
</glyph>
<glyph name="ubreve" format="1">
  <advance width="600"/>
  <unicode hex="016D"/>
  <outline>
    <contour>
      <point x="355" y="595" type="curve"/>
      <point x="460" y="595"/>
      <point x="507" y="684"/>
      <point x="536" y="746" type="curve"/>
      <point x="486" y="767" type="line"/>
      <point x="459" y="733" type="line" smooth="yes"/>
      <point x="416" y="679"/>
      <point x="399" y="658"/>
      <point x="357" y="658" type="curve"/>
      <point x="312" y="658"/>
      <point x="299" y="683"/>
      <point x="277" y="733" type="curve"/>
      <point x="262" y="767" type="line"/>
      <point x="214" y="746" type="line"/>
      <point x="223" y="685"/>
      <point x="249" y="595"/>
    </contour>
    <contour>
      <point x="395" y="122" type="curve"/>
      <point x="399" y="122" type="line"/>
      <point x="379" y="0" type="line"/>
      <point x="457" y="0" type="line"/>
      <point x="543" y="516" type="line"/>
      <point x="465" y="516" type="line"/>
      <point x="417" y="231" type="line" smooth="yes"/>
      <point x="407" y="172"/>
      <point x="369" y="126"/>
      <point x="358" y="113" type="curve"/>
      <point x="329" y="79"/>
      <point x="294" y="57"/>
      <point x="249" y="57" type="curve"/>
      <point x="191" y="57"/>
      <point x="163" y="95"/>
      <point x="163" y="156" type="curve"/>
      <point x="163" y="167"/>
      <point x="164" y="187"/>
      <point x="168" y="211" type="curve"/>
      <point x="219" y="516" type="line"/>
      <point x="141" y="516" type="line"/>
      <point x="89" y="204" type="line" smooth="yes"/>
      <point x="85" y="181"/>
      <point x="83" y="157"/>
      <point x="83" y="137" type="curve"/>
      <point x="83" y="43"/>
      <point x="137" y="-12"/>
      <point x="223" y="-12" type="curve"/>
      <point x="306" y="-12"/>
      <point x="357" y="40"/>
    </contour>
  </outline>
</glyph>
<glyph name="Wcircumflex" format="1">
  <advance width="600"/>
  <unicode hex="0174"/>
  <outline>
    <contour>
      <point x="539" y="788" type="line"/>
      <point x="452" y="935" type="line"/>
      <point x="354" y="935" type="line"/>
      <point x="221" y="794" type="line"/>
      <point x="260" y="761" type="line"/>
      <point x="397" y="878" type="line"/>
      <point x="493" y="761" type="line"/>
    </contour>
    <contour>
      <point x="107" y="698" type="line"/>
      <point x="46" y="0" type="line"/>
      <point x="167" y="0" type="line"/>
      <point x="322" y="421" type="line"/>
      <point x="330" y="421" type="line"/>
      <point x="345" y="0" type="line"/>
      <point x="466" y="0" type="line"/>
      <point x="637" y="698" type="line"/>
      <point x="562" y="698" type="line"/>
      <point x="467" y="298" type="line"/>
      <point x="416" y="82" type="line"/>
      <point x="408" y="82" type="line"/>
      <point x="387" y="516" type="line"/>
      <point x="293" y="516" type="line"/>
      <point x="130" y="82" type="line"/>
      <point x="122" y="82" type="line"/>
      <point x="143" y="305" type="line"/>
      <point x="180" y="698" type="line"/>
    </contour>
  </outline>
</glyph>
<glyph name="wcircumflex" format="1">
  <advance width="600"/>
  <unicode hex="0175"/>
  <outline>
    <contour>
      <point x="524" y="618" type="line"/>
      <point x="437" y="765" type="line"/>
      <point x="339" y="765" type="line"/>
      <point x="206" y="624" type="line"/>
      <point x="245" y="591" type="line"/>
      <point x="382" y="708" type="line"/>
      <point x="478" y="591" type="line"/>
    </contour>
    <contour>
      <point x="133" y="-10" type="curve"/>
      <point x="196" y="-10"/>
      <point x="231" y="30"/>
      <point x="260" y="95" type="curve"/>
      <point x="265" y="95" type="line"/>
      <point x="260" y="17"/>
      <point x="296" y="-10"/>
      <point x="350" y="-10" type="curve"/>
      <point x="405" y="-10"/>
      <point x="453" y="16"/>
      <point x="489" y="66" type="curve"/>
      <point x="539" y="136"/>
      <point x="567" y="251"/>
      <point x="567" y="371" type="curve"/>
      <point x="567" y="432"/>
      <point x="556" y="486"/>
      <point x="540" y="521" type="curve"/>
      <point x="474" y="501" type="line"/>
      <point x="489" y="469"/>
      <point x="497" y="417"/>
      <point x="497" y="367" type="curve"/>
      <point x="497" y="220"/>
      <point x="441" y="54"/>
      <point x="366" y="54" type="curve"/>
      <point x="335" y="54"/>
      <point x="322" y="71"/>
      <point x="322" y="112" type="curve"/>
      <point x="322" y="129"/>
      <point x="323" y="148"/>
      <point x="327" y="173" type="curve"/>
      <point x="383" y="516" type="line"/>
      <point x="315" y="516" type="line"/>
      <point x="258" y="186" type="line" smooth="yes"/>
      <point x="253" y="160"/>
      <point x="244" y="120"/>
      <point x="225" y="94" type="curve"/>
      <point x="207" y="70"/>
      <point x="188" y="54"/>
      <point x="161" y="54" type="curve"/>
      <point x="132" y="54"/>
      <point x="116" y="71"/>
      <point x="116" y="111" type="curve"/>
      <point x="116" y="129"/>
      <point x="118" y="150"/>
      <point x="122" y="173" type="curve"/>
      <point x="178" y="516" type="line"/>
      <point x="108" y="516" type="line"/>
      <point x="49" y="159" type="line" smooth="yes"/>
      <point x="45" y="133"/>
      <point x="43" y="113"/>
      <point x="43" y="92" type="curve"/>
      <point x="43" y="30"/>
      <point x="73" y="-10"/>
    </contour>
  </outline>
</glyph>
<glyph name="Zdotaccent" format="1">
  <advance width="600"/>
  <unicode hex="017B"/>
  <outline>
    <contour>
      <point x="381" y="782" type="curve"/>
      <point x="425" y="782"/>
      <point x="443" y="806"/>
      <point x="447" y="830" type="curve"/>
      <point x="448" y="836"/>
      <point x="451" y="852"/>
      <point x="451" y="859" type="curve"/>
      <point x="451" y="880"/>
      <point x="436" y="899"/>
      <point x="393" y="899" type="curve"/>
      <point x="349" y="899"/>
      <point x="331" y="875"/>
      <point x="327" y="851" type="curve"/>
      <point x="326" y="845"/>
      <point x="323" y="829"/>
      <point x="323" y="822" type="curve"/>
      <point x="323" y="801"/>
      <point x="338" y="782"/>
    </contour>
    <contour>
      <point x="5" y="0" type="line"/>
      <point x="508" y="0" type="line"/>
      <point x="520" y="72" type="line"/>
      <point x="111" y="72" type="line"/>
      <point x="597" y="624" type="line"/>
      <point x="609" y="698" type="line"/>
      <point x="141" y="698" type="line"/>
      <point x="129" y="626" type="line"/>
      <point x="503" y="626" type="line"/>
      <point x="17" y="74" type="line"/>
    </contour>
  </outline>
</glyph>
<glyph name="Zcaron" format="1">
  <advance width="600"/>
  <unicode hex="017D"/>
  <outline>
    <contour>
      <point x="241" y="916" type="line"/>
      <point x="328" y="769" type="line"/>
      <point x="426" y="769" type="line"/>
      <point x="559" y="910" type="line"/>
      <point x="520" y="943" type="line"/>
      <point x="383" y="826" type="line"/>
      <point x="287" y="943" type="line"/>
    </contour>
    <contour>
      <point x="5" y="0" type="line"/>
      <point x="508" y="0" type="line"/>
      <point x="520" y="72" type="line"/>
      <point x="111" y="72" type="line"/>
      <point x="597" y="624" type="line"/>
      <point x="609" y="698" type="line"/>
      <point x="141" y="698" type="line"/>
      <point x="129" y="626" type="line"/>
      <point x="503" y="626" type="line"/>
      <point x="17" y="74" type="line"/>
    </contour>
  </outline>
</glyph>
<glyph name="aringacute" format="1">
  <advance width="600"/>
  <unicode hex="01FB"/>
  <outline>
    <contour>
      <point x="335" y="842" type="line"/>
      <point x="372" y="814" type="line"/>
      <point x="478" y="917" type="line"/>
      <point x="425" y="956" type="line"/>
    </contour>
    <contour>
      <point x="333" y="568" type="curve"/>
      <point x="401" y="568"/>
      <point x="462" y="624"/>
      <point x="462" y="695" type="curve"/>
      <point x="462" y="753"/>
      <point x="420" y="794"/>
      <point x="361" y="794" type="curve"/>
      <point x="293" y="794"/>
      <point x="232" y="738"/>
      <point x="232" y="667" type="curve"/>
      <point x="232" y="609"/>
      <point x="274" y="568"/>
    </contour>
    <contour>
      <point x="337" y="615" type="curve"/>
      <point x="304" y="615"/>
      <point x="287" y="632"/>
      <point x="287" y="659" type="curve"/>
      <point x="287" y="666"/>
      <point x="288" y="676"/>
      <point x="291" y="691" type="curve"/>
      <point x="300" y="732"/>
      <point x="326" y="747"/>
      <point x="357" y="747" type="curve"/>
      <point x="390" y="747"/>
      <point x="407" y="730"/>
      <point x="407" y="703" type="curve"/>
      <point x="407" y="696"/>
      <point x="406" y="686"/>
      <point x="403" y="671" type="curve"/>
      <point x="394" y="630"/>
      <point x="368" y="615"/>
    </contour>
    <contour>
      <point x="403" y="122" type="line"/>
      <point x="383" y="0" type="line"/>
      <point x="461" y="0" type="line"/>
      <point x="547" y="516" type="line"/>
      <point x="469" y="516" type="line"/>
      <point x="454" y="426" type="line"/>
      <point x="451" y="426" type="line"/>
      <point x="429" y="493"/>
      <point x="376" y="528"/>
      <point x="300" y="528" type="curve"/>
      <point x="118" y="528"/>
      <point x="56" y="326"/>
      <point x="56" y="188" type="curve"/>
      <point x="56" y="56"/>
      <point x="113" y="-12"/>
      <point x="217" y="-12" type="curve"/>
      <point x="308" y="-12"/>
      <point x="360" y="41"/>
      <point x="400" y="122" type="curve"/>
    </contour>
    <contour>
      <point x="244" y="57" type="curve"/>
      <point x="172" y="57"/>
      <point x="135" y="103"/>
      <point x="135" y="180" type="curve"/>
      <point x="135" y="193"/>
      <point x="136" y="207"/>
      <point x="139" y="225" type="curve"/>
      <point x="151" y="297" type="line" smooth="yes"/>
      <point x="167" y="393"/>
      <point x="224" y="459"/>
      <point x="323" y="459" type="curve"/>
      <point x="400" y="459"/>
      <point x="453" y="418"/>
      <point x="441" y="346" type="curve"/>
      <point x="422" y="232" type="line" smooth="yes"/>
      <point x="414" y="184"/>
      <point x="391" y="143"/>
      <point x="365" y="114" type="curve"/>
      <point x="329" y="74"/>
      <point x="287" y="57"/>
    </contour>
  </outline>
</glyph>
<glyph name="dotaccent" format="1">
  <advance width="600"/>
  <unicode hex="02D9"/>
  <outline>
    <contour>
      <point x="317" y="612" type="curve"/>
      <point x="361" y="612"/>
      <point x="379" y="636"/>
      <point x="383" y="660" type="curve"/>
      <point x="384" y="666"/>
      <point x="387" y="682"/>
      <point x="387" y="689" type="curve"/>
      <point x="387" y="710"/>
      <point x="372" y="729"/>
      <point x="329" y="729" type="curve"/>
      <point x="285" y="729"/>
      <point x="267" y="705"/>
      <point x="263" y="681" type="curve"/>
      <point x="262" y="675"/>
      <point x="259" y="659"/>
      <point x="259" y="652" type="curve"/>
      <point x="259" y="631"/>
      <point x="274" y="612"/>
    </contour>
  </outline>
</glyph>
<glyph name="hungarumlaut" format="1">
  <advance width="600"/>
  <unicode hex="02DD"/>
  <outline>
    <contour>
      <point x="196" y="612" type="line"/>
      <point x="240" y="586" type="line"/>
      <point x="368" y="741" type="line"/>
      <point x="303" y="778" type="line"/>
    </contour>
    <contour>
      <point x="357" y="612" type="line"/>
      <point x="401" y="586" type="line"/>
      <point x="529" y="741" type="line"/>
      <point x="464" y="778" type="line"/>
    </contour>
  </outline>
</glyph>
<glyph name="uni0302" format="1">
  <advance width="0"/>
  <unicode hex="0302"/>
  <outline>
    <contour>
      <point x="176" y="618" type="line"/>
      <point x="89" y="765" type="line"/>
      <point x="-9" y="765" type="line"/>
      <point x="-142" y="624" type="line"/>
      <point x="-103" y="591" type="line"/>
      <point x="34" y="708" type="line"/>
      <point x="130" y="591" type="line"/>
    </contour>
  </outline>
</glyph>
<glyph name="uni0304" format="1">
  <advance width="0"/>
  <unicode hex="0304"/>
  <outline>
    <contour>
      <point x="168" y="705" type="line"/>
      <point x="-109" y="705" type="line"/>
      <point x="-120" y="638" type="line"/>
      <point x="157" y="638" type="line"/>
    </contour>
  </outline>
</glyph>
<glyph name="uni0307" format="1">
  <advance width="0"/>
  <unicode hex="0307"/>
  <outline>
    <contour>
      <point x="17" y="612" type="curve"/>
      <point x="61" y="612"/>
      <point x="79" y="636"/>
      <point x="83" y="660" type="curve"/>
      <point x="84" y="666"/>
      <point x="87" y="682"/>
      <point x="87" y="689" type="curve"/>
      <point x="87" y="710"/>
      <point x="72" y="729"/>
      <point x="29" y="729" type="curve"/>
      <point x="-15" y="729"/>
      <point x="-33" y="705"/>
      <point x="-37" y="681" type="curve"/>
      <point x="-38" y="675"/>
      <point x="-41" y="659"/>
      <point x="-41" y="652" type="curve"/>
      <point x="-41" y="631"/>
      <point x="-26" y="612"/>
    </contour>
  </outline>
</glyph>
<glyph name="uni0309" format="1">
  <advance width="0"/>
  <unicode hex="0309"/>
  <outline>
    <contour>
      <point x="60" y="765" type="curve"/>
      <point x="-42" y="765" type="line"/>
      <point x="-52" y="704" type="line"/>
      <point x="63" y="704" type="line"/>
      <point x="-8" y="604" type="line"/>
      <point x="35" y="577" type="line"/>
      <point x="75" y="619" type="line" smooth="yes"/>
      <point x="108" y="653"/>
      <point x="127" y="683"/>
      <point x="127" y="713" type="curve"/>
      <point x="127" y="743"/>
      <point x="107" y="765"/>
    </contour>
  </outline>
</glyph>
<glyph name="uni0326" format="1">
  <advance width="0"/>
  <unicode hex="0326"/>
  <outline>
    <contour>
      <point x="44" y="-64" type="line"/>
      <point x="-64" y="-64" type="line"/>
      <point x="-119" y="-249" type="line"/>
      <point x="-58" y="-249" type="line"/>
    </contour>
  </outline>
</glyph>
<glyph name="Wdieresis" format="1">
  <advance width="600"/>
  <unicode hex="1E84"/>
  <outline>
    <contour>
      <point x="289" y="789" type="curve"/>
      <point x="329" y="789"/>
      <point x="341" y="806"/>
      <point x="348" y="832" type="curve"/>
      <point x="350" y="839"/>
      <point x="352" y="850"/>
      <point x="352" y="857" type="curve"/>
      <point x="352" y="876"/>
      <point x="339" y="893"/>
      <point x="300" y="893" type="curve"/>
      <point x="260" y="893"/>
      <point x="248" y="876"/>
      <point x="241" y="850" type="curve"/>
      <point x="239" y="843"/>
      <point x="237" y="832"/>
      <point x="237" y="825" type="curve"/>
      <point x="237" y="806"/>
      <point x="250" y="789"/>
    </contour>
    <contour>
      <point x="475" y="789" type="curve"/>
      <point x="515" y="789"/>
      <point x="527" y="806"/>
      <point x="534" y="832" type="curve"/>
      <point x="536" y="839"/>
      <point x="538" y="850"/>
      <point x="538" y="857" type="curve"/>
      <point x="538" y="876"/>
      <point x="525" y="893"/>
      <point x="486" y="893" type="curve"/>
      <point x="446" y="893"/>
      <point x="434" y="876"/>
      <point x="427" y="850" type="curve"/>
      <point x="425" y="843"/>
      <point x="423" y="832"/>
      <point x="423" y="825" type="curve"/>
      <point x="423" y="806"/>
      <point x="436" y="789"/>
    </contour>
    <contour>
      <point x="107" y="698" type="line"/>
      <point x="46" y="0" type="line"/>
      <point x="167" y="0" type="line"/>
      <point x="322" y="421" type="line"/>
      <point x="330" y="421" type="line"/>
      <point x="345" y="0" type="line"/>
      <point x="466" y="0" type="line"/>
      <point x="637" y="698" type="line"/>
      <point x="562" y="698" type="line"/>
      <point x="467" y="298" type="line"/>
      <point x="416" y="82" type="line"/>
      <point x="408" y="82" type="line"/>
      <point x="387" y="516" type="line"/>
      <point x="293" y="516" type="line"/>
      <point x="130" y="82" type="line"/>
      <point x="122" y="82" type="line"/>
      <point x="143" y="305" type="line"/>
      <point x="180" y="698" type="line"/>
    </contour>
  </outline>
</glyph>
<glyph name="uni1E9E" format="1">
  <advance width="600"/>
  <unicode hex="1E9E"/>
  <outline>
    <contour>
      <point x="610" y="698" type="line"/>
      <point x="138" y="698" type="line"/>
      <point x="21" y="0" type="line"/>
      <point x="103" y="0" type="line"/>
      <point x="208" y="626" type="line"/>
      <point x="511" y="626" type="line"/>
      <point x="303" y="409" type="line"/>
      <point x="290" y="332" type="line"/>
      <point x="384" y="332" type="line" smooth="yes"/>
      <point x="452" y="332"/>
      <point x="485" y="295"/>
      <point x="485" y="239" type="curve"/>
      <point x="485" y="229"/>
      <point x="484" y="219"/>
      <point x="477" y="177" type="curve"/>
      <point x="465" y="105"/>
      <point x="412" y="58"/>
      <point x="338" y="58" type="curve"/>
      <point x="287" y="58"/>
      <point x="247" y="81"/>
      <point x="223" y="122" type="curve"/>
      <point x="159" y="80" type="line"/>
      <point x="193" y="20"/>
      <point x="256" y="-12"/>
      <point x="338" y="-12" type="curve"/>
      <point x="493" y="-12"/>
      <point x="570" y="105"/>
      <point x="570" y="226" type="curve"/>
      <point x="570" y="341"/>
      <point x="501" y="395"/>
      <point x="391" y="399" type="curve"/>
      <point x="391" y="403" type="line"/>
      <point x="596" y="616" type="line"/>
    </contour>
  </outline>
</glyph>
<glyph name="uni1EA2" format="1">
  <advance width="600"/>
  <unicode hex="1EA2"/>
  <outline>
    <contour>
      <point x="434" y="935" type="curve"/>
      <point x="332" y="935" type="line"/>
      <point x="322" y="874" type="line"/>
      <point x="437" y="874" type="line"/>
      <point x="366" y="774" type="line"/>
      <point x="409" y="747" type="line"/>
      <point x="449" y="789" type="line" smooth="yes"/>
      <point x="482" y="823"/>
      <point x="501" y="853"/>
      <point x="501" y="883" type="curve"/>
      <point x="501" y="913"/>
      <point x="481" y="935"/>
    </contour>
    <contour>
      <point x="417" y="199" type="line"/>
      <point x="442" y="0" type="line"/>
      <point x="528" y="0" type="line"/>
      <point x="431" y="698" type="line"/>
      <point x="321" y="698" type="line"/>
      <point x="-9" y="0" type="line"/>
      <point x="79" y="0" type="line"/>
      <point x="171" y="199" type="line"/>
    </contour>
    <contour>
      <point x="357" y="614" type="line"/>
      <point x="366" y="614" type="line"/>
      <point x="409" y="272" type="line"/>
      <point x="202" y="272" type="line"/>
    </contour>
  </outline>
</glyph>
<glyph name="uni1EA9" format="1">
  <advance width="600"/>
  <unicode hex="1EA9"/>
  <outline>
    <contour>
      <point x="526" y="895" type="curve"/>
      <point x="425" y="895" type="line"/>
      <point x="414" y="834" type="line"/>
      <point x="529" y="834" type="line"/>
      <point x="458" y="734" type="line"/>
      <point x="500" y="707" type="line"/>
      <point x="556" y="770" type="line" smooth="yes"/>
      <point x="579" y="796"/>
      <point x="593" y="820"/>
      <point x="593" y="844" type="curve"/>
      <point x="593" y="872"/>
      <point x="573" y="895"/>
    </contour>
    <contour>
      <point x="494" y="608" type="line"/>
      <point x="407" y="755" type="line"/>
      <point x="309" y="755" type="line"/>
      <point x="176" y="614" type="line"/>
      <point x="215" y="581" type="line"/>
      <point x="352" y="698" type="line"/>
      <point x="448" y="581" type="line"/>
    </contour>
    <contour>
      <point x="403" y="122" type="line"/>
      <point x="383" y="0" type="line"/>
      <point x="461" y="0" type="line"/>
      <point x="547" y="516" type="line"/>
      <point x="469" y="516" type="line"/>
      <point x="454" y="426" type="line"/>
      <point x="451" y="426" type="line"/>
      <point x="429" y="493"/>
      <point x="376" y="528"/>
      <point x="300" y="528" type="curve"/>
      <point x="118" y="528"/>
      <point x="56" y="326"/>
      <point x="56" y="188" type="curve"/>
      <point x="56" y="56"/>
      <point x="113" y="-12"/>
      <point x="217" y="-12" type="curve"/>
      <point x="308" y="-12"/>
      <point x="360" y="41"/>
      <point x="400" y="122" type="curve"/>
    </contour>
    <contour>
      <point x="244" y="57" type="curve"/>
      <point x="172" y="57"/>
      <point x="135" y="103"/>
      <point x="135" y="180" type="curve"/>
      <point x="135" y="193"/>
      <point x="136" y="207"/>
      <point x="139" y="225" type="curve"/>
      <point x="151" y="297" type="line" smooth="yes"/>
      <point x="167" y="393"/>
      <point x="224" y="459"/>
      <point x="323" y="459" type="curve"/>
      <point x="400" y="459"/>
      <point x="453" y="418"/>
      <point x="441" y="346" type="curve"/>
      <point x="422" y="232" type="line" smooth="yes"/>
      <point x="414" y="184"/>
      <point x="391" y="143"/>
      <point x="365" y="114" type="curve"/>
      <point x="329" y="74"/>
      <point x="287" y="57"/>
    </contour>
  </outline>
</glyph>
<glyph name="uni1EAB" format="1">
  <advance width="600"/>
  <unicode hex="1EAB"/>
  <outline>
    <contour>
      <point x="308" y="894" type="curve"/>
      <point x="266" y="894"/>
      <point x="231" y="868"/>
      <point x="209" y="842" type="curve"/>
      <point x="237" y="801" type="line"/>
      <point x="260" y="819"/>
      <point x="279" y="830"/>
      <point x="300" y="830" type="curve"/>
      <point x="319" y="830"/>
      <point x="341" y="821"/>
      <point x="364" y="807" type="curve"/>
      <point x="384" y="795"/>
      <point x="407" y="779"/>
      <point x="440" y="779" type="curve"/>
      <point x="482" y="779"/>
      <point x="517" y="805"/>
      <point x="539" y="831" type="curve"/>
      <point x="511" y="872" type="line"/>
      <point x="488" y="854"/>
      <point x="469" y="843"/>
      <point x="448" y="843" type="curve"/>
      <point x="429" y="843"/>
      <point x="407" y="852"/>
      <point x="384" y="866" type="curve"/>
      <point x="364" y="878"/>
      <point x="341" y="894"/>
    </contour>
    <contour>
      <point x="497" y="606" type="line"/>
      <point x="409" y="745" type="line"/>
      <point x="310" y="745" type="line"/>
      <point x="178" y="616" type="line"/>
      <point x="217" y="581" type="line"/>
      <point x="352" y="692" type="line"/>
      <point x="450" y="581" type="line"/>
    </contour>
    <contour>
      <point x="403" y="122" type="line"/>
      <point x="383" y="0" type="line"/>
      <point x="461" y="0" type="line"/>
      <point x="547" y="516" type="line"/>
      <point x="469" y="516" type="line"/>
      <point x="454" y="426" type="line"/>
      <point x="451" y="426" type="line"/>
      <point x="429" y="493"/>
      <point x="376" y="528"/>
      <point x="300" y="528" type="curve"/>
      <point x="118" y="528"/>
      <point x="56" y="326"/>
      <point x="56" y="188" type="curve"/>
      <point x="56" y="56"/>
      <point x="113" y="-12"/>
      <point x="217" y="-12" type="curve"/>
      <point x="308" y="-12"/>
      <point x="360" y="41"/>
      <point x="400" y="122" type="curve"/>
    </contour>
    <contour>
      <point x="244" y="57" type="curve"/>
      <point x="172" y="57"/>
      <point x="135" y="103"/>
      <point x="135" y="180" type="curve"/>
      <point x="135" y="193"/>
      <point x="136" y="207"/>
      <point x="139" y="225" type="curve"/>
      <point x="151" y="297" type="line" smooth="yes"/>
      <point x="167" y="393"/>
      <point x="224" y="459"/>
      <point x="323" y="459" type="curve"/>
      <point x="400" y="459"/>
      <point x="453" y="418"/>
      <point x="441" y="346" type="curve"/>
      <point x="422" y="232" type="line" smooth="yes"/>
      <point x="414" y="184"/>
      <point x="391" y="143"/>
      <point x="365" y="114" type="curve"/>
      <point x="329" y="74"/>
      <point x="287" y="57"/>
    </contour>
  </outline>
</glyph>
<glyph name="uni1EAD" format="1">
  <advance width="600"/>
  <unicode hex="1EAD"/>
  <outline>
    <contour>
      <point x="219" y="-171" type="curve"/>
      <point x="259" y="-171"/>
      <point x="271" y="-153"/>
      <point x="278" y="-128" type="curve"/>
      <point x="280" y="-121"/>
      <point x="282" y="-109"/>
      <point x="282" y="-102" type="curve"/>
      <point x="282" y="-83"/>
      <point x="268" y="-66"/>
      <point x="230" y="-66" type="curve"/>
      <point x="190" y="-66"/>
      <point x="178" y="-84"/>
      <point x="171" y="-109" type="curve"/>
      <point x="169" y="-116"/>
      <point x="167" y="-128"/>
      <point x="167" y="-135" type="curve"/>
      <point x="167" y="-154"/>
      <point x="181" y="-171"/>
    </contour>
    <contour>
      <point x="496" y="618" type="line"/>
      <point x="409" y="765" type="line"/>
      <point x="311" y="765" type="line"/>
      <point x="178" y="624" type="line"/>
      <point x="217" y="591" type="line"/>
      <point x="354" y="708" type="line"/>
      <point x="450" y="591" type="line"/>
    </contour>
    <contour>
      <point x="403" y="122" type="line"/>
      <point x="383" y="0" type="line"/>
      <point x="461" y="0" type="line"/>
      <point x="547" y="516" type="line"/>
      <point x="469" y="516" type="line"/>
      <point x="454" y="426" type="line"/>
      <point x="451" y="426" type="line"/>
      <point x="429" y="493"/>
      <point x="376" y="528"/>
      <point x="300" y="528" type="curve"/>
      <point x="118" y="528"/>
      <point x="56" y="326"/>
      <point x="56" y="188" type="curve"/>
      <point x="56" y="56"/>
      <point x="113" y="-12"/>
      <point x="217" y="-12" type="curve"/>
      <point x="308" y="-12"/>
      <point x="360" y="41"/>
      <point x="400" y="122" type="curve"/>
    </contour>
    <contour>
      <point x="244" y="57" type="curve"/>
      <point x="172" y="57"/>
      <point x="135" y="103"/>
      <point x="135" y="180" type="curve"/>
      <point x="135" y="193"/>
      <point x="136" y="207"/>
      <point x="139" y="225" type="curve"/>
      <point x="151" y="297" type="line" smooth="yes"/>
      <point x="167" y="393"/>
      <point x="224" y="459"/>
      <point x="323" y="459" type="curve"/>
      <point x="400" y="459"/>
      <point x="453" y="418"/>
      <point x="441" y="346" type="curve"/>
      <point x="422" y="232" type="line" smooth="yes"/>
      <point x="414" y="184"/>
      <point x="391" y="143"/>
      <point x="365" y="114" type="curve"/>
      <point x="329" y="74"/>
      <point x="287" y="57"/>
    </contour>
  </outline>
</glyph>
<glyph name="uni1EB3" format="1">
  <advance width="600"/>
  <unicode hex="1EB3"/>
  <outline>
    <contour>
      <point x="331" y="585" type="curve"/>
      <point x="435" y="585"/>
      <point x="489" y="661"/>
      <point x="520" y="724" type="curve"/>
      <point x="471" y="747" type="line"/>
      <point x="445" y="715" type="line" smooth="yes"/>
      <point x="403" y="663"/>
      <point x="375" y="647"/>
      <point x="336" y="647" type="curve"/>
      <point x="293" y="647"/>
      <point x="274" y="667"/>
      <point x="250" y="715" type="curve"/>
      <point x="234" y="747" type="line"/>
      <point x="189" y="724" type="line"/>
      <point x="198" y="666"/>
      <point x="223" y="585"/>
    </contour>
    <contour>
      <point x="369" y="890" type="curve"/>
      <point x="280" y="890" type="line"/>
      <point x="269" y="829" type="line"/>
      <point x="372" y="829" type="line"/>
      <point x="301" y="729" type="line"/>
      <point x="343" y="702" type="line"/>
      <point x="399" y="765" type="line" smooth="yes"/>
      <point x="422" y="791"/>
      <point x="436" y="815"/>
      <point x="436" y="839" type="curve"/>
      <point x="436" y="867"/>
      <point x="416" y="890"/>
    </contour>
    <contour>
      <point x="403" y="122" type="line"/>
      <point x="383" y="0" type="line"/>
      <point x="461" y="0" type="line"/>
      <point x="547" y="516" type="line"/>
      <point x="469" y="516" type="line"/>
      <point x="454" y="426" type="line"/>
      <point x="451" y="426" type="line"/>
      <point x="429" y="493"/>
      <point x="376" y="528"/>
      <point x="300" y="528" type="curve"/>
      <point x="118" y="528"/>
      <point x="56" y="326"/>
      <point x="56" y="188" type="curve"/>
      <point x="56" y="56"/>
      <point x="113" y="-12"/>
      <point x="217" y="-12" type="curve"/>
      <point x="308" y="-12"/>
      <point x="360" y="41"/>
      <point x="400" y="122" type="curve"/>
    </contour>
    <contour>
      <point x="244" y="57" type="curve"/>
      <point x="172" y="57"/>
      <point x="135" y="103"/>
      <point x="135" y="180" type="curve"/>
      <point x="135" y="193"/>
      <point x="136" y="207"/>
      <point x="139" y="225" type="curve"/>
      <point x="151" y="297" type="line" smooth="yes"/>
      <point x="167" y="393"/>
      <point x="224" y="459"/>
      <point x="323" y="459" type="curve"/>
      <point x="400" y="459"/>
      <point x="453" y="418"/>
      <point x="441" y="346" type="curve"/>
      <point x="422" y="232" type="line" smooth="yes"/>
      <point x="414" y="184"/>
      <point x="391" y="143"/>
      <point x="365" y="114" type="curve"/>
      <point x="329" y="74"/>
      <point x="287" y="57"/>
    </contour>
  </outline>
</glyph>
<glyph name="uni1EB4" format="1">
  <advance width="600"/>
  <unicode hex="1EB4"/>
  <outline>
    <contour>
      <point x="480" y="947" type="curve"/>
      <point x="526" y="947"/>
      <point x="557" y="972"/>
      <point x="580" y="999" type="curve"/>
      <point x="552" y="1034" type="line"/>
      <point x="530" y="1017"/>
      <point x="512" y="1007"/>
      <point x="491" y="1007" type="curve"/>
      <point x="474" y="1007"/>
      <point x="456" y="1014"/>
      <point x="427" y="1027" type="curve"/>
      <point x="407" y="1036"/>
      <point x="384" y="1049"/>
      <point x="351" y="1049" type="curve"/>
      <point x="305" y="1049"/>
      <point x="274" y="1024"/>
      <point x="251" y="997" type="curve"/>
      <point x="279" y="962" type="line"/>
      <point x="301" y="979"/>
      <point x="319" y="989"/>
      <point x="340" y="989" type="curve"/>
      <point x="357" y="989"/>
      <point x="375" y="982"/>
      <point x="404" y="969" type="curve"/>
      <point x="424" y="960"/>
      <point x="447" y="947"/>
    </contour>
    <contour>
      <point x="385" y="755" type="curve"/>
      <point x="489" y="755"/>
      <point x="543" y="831"/>
      <point x="574" y="894" type="curve"/>
      <point x="525" y="917" type="line"/>
      <point x="499" y="885" type="line" smooth="yes"/>
      <point x="457" y="833"/>
      <point x="429" y="817"/>
      <point x="390" y="817" type="curve"/>
      <point x="347" y="817"/>
      <point x="328" y="837"/>
      <point x="304" y="885" type="curve"/>
      <point x="288" y="917" type="line"/>
      <point x="243" y="894" type="line"/>
      <point x="252" y="836"/>
      <point x="277" y="755"/>
    </contour>
    <contour>
      <point x="417" y="199" type="line"/>
      <point x="442" y="0" type="line"/>
      <point x="528" y="0" type="line"/>
      <point x="431" y="698" type="line"/>
      <point x="321" y="698" type="line"/>
      <point x="-9" y="0" type="line"/>
      <point x="79" y="0" type="line"/>
      <point x="171" y="199" type="line"/>
    </contour>
    <contour>
      <point x="357" y="614" type="line"/>
      <point x="366" y="614" type="line"/>
      <point x="409" y="272" type="line"/>
      <point x="202" y="272" type="line"/>
    </contour>
  </outline>
</glyph>
<glyph name="uni1EBB" format="1">
  <advance width="600"/>
  <unicode hex="1EBB"/>
  <outline>
    <contour>
      <point x="414" y="765" type="curve"/>
      <point x="312" y="765" type="line"/>
      <point x="302" y="704" type="line"/>
      <point x="417" y="704" type="line"/>
      <point x="346" y="604" type="line"/>
      <point x="389" y="577" type="line"/>
      <point x="429" y="619" type="line" smooth="yes"/>
      <point x="462" y="653"/>
      <point x="481" y="683"/>
      <point x="481" y="713" type="curve"/>
      <point x="481" y="743"/>
      <point x="461" y="765"/>
    </contour>
    <contour>
      <point x="277" y="-12" type="curve"/>
      <point x="386" y="-12"/>
      <point x="456" y="40"/>
      <point x="514" y="135" type="curve"/>
      <point x="459" y="169" type="line"/>
      <point x="401" y="87"/>
      <point x="358" y="55"/>
      <point x="284" y="55" type="curve"/>
      <point x="176" y="55"/>
      <point x="155" y="122"/>
      <point x="155" y="194" type="curve"/>
      <point x="155" y="196"/>
      <point x="155" y="207"/>
      <point x="156" y="217" type="curve"/>
      <point x="485" y="226"/>
      <point x="532" y="316"/>
      <point x="532" y="389" type="curve"/>
      <point x="532" y="479"/>
      <point x="458" y="528"/>
      <point x="357" y="528" type="curve"/>
      <point x="191" y="528"/>
      <point x="73" y="396"/>
      <point x="73" y="209" type="curve"/>
      <point x="73" y="61"/>
      <point x="147" y="-12"/>
    </contour>
    <contour>
      <point x="350" y="463" type="curve"/>
      <point x="425" y="463"/>
      <point x="452" y="428"/>
      <point x="452" y="386" type="curve"/>
      <point x="452" y="336"/>
      <point x="414" y="279"/>
      <point x="162" y="271" type="curve"/>
      <point x="163" y="281" type="line" smooth="yes"/>
      <point x="178" y="398"/>
      <point x="246" y="463"/>
    </contour>
  </outline>
</glyph>
<glyph name="uni1EC2" format="1">
  <advance width="600"/>
  <unicode hex="1EC2"/>
  <outline>
    <contour>
      <point x="586" y="1065" type="curve"/>
      <point x="485" y="1065" type="line"/>
      <point x="474" y="1004" type="line"/>
      <point x="589" y="1004" type="line"/>
      <point x="518" y="904" type="line"/>
      <point x="560" y="877" type="line"/>
      <point x="616" y="940" type="line" smooth="yes"/>
      <point x="639" y="966"/>
      <point x="653" y="990"/>
      <point x="653" y="1014" type="curve"/>
      <point x="653" y="1042"/>
      <point x="633" y="1065"/>
    </contour>
    <contour>
      <point x="554" y="778" type="line"/>
      <point x="467" y="925" type="line"/>
      <point x="369" y="925" type="line"/>
      <point x="236" y="784" type="line"/>
      <point x="275" y="751" type="line"/>
      <point x="412" y="868" type="line"/>
      <point x="508" y="751" type="line"/>
    </contour>
    <contour>
      <point x="164" y="698" type="line"/>
      <point x="47" y="0" type="line"/>
      <point x="477" y="0" type="line"/>
      <point x="489" y="72" type="line"/>
      <point x="141" y="72" type="line"/>
      <point x="182" y="318" type="line"/>
      <point x="517" y="318" type="line"/>
      <point x="529" y="390" type="line"/>
      <point x="194" y="390" type="line"/>
      <point x="234" y="626" type="line"/>
      <point x="580" y="626" type="line"/>
      <point x="592" y="698" type="line"/>
    </contour>
  </outline>
</glyph>
<glyph name="uni1EC4" format="1">
  <advance width="600"/>
  <unicode hex="1EC4"/>
  <outline>
    <contour>
      <point x="366" y="1064" type="curve"/>
      <point x="324" y="1064"/>
      <point x="289" y="1038"/>
      <point x="267" y="1012" type="curve"/>
      <point x="295" y="971" type="line"/>
      <point x="318" y="989"/>
      <point x="337" y="1000"/>
      <point x="358" y="1000" type="curve"/>
      <point x="377" y="1000"/>
      <point x="399" y="991"/>
      <point x="422" y="977" type="curve"/>
      <point x="442" y="965"/>
      <point x="465" y="949"/>
      <point x="498" y="949" type="curve"/>
      <point x="540" y="949"/>
      <point x="575" y="975"/>
      <point x="597" y="1001" type="curve"/>
      <point x="569" y="1042" type="line"/>
      <point x="546" y="1024"/>
      <point x="527" y="1013"/>
      <point x="506" y="1013" type="curve"/>
      <point x="487" y="1013"/>
      <point x="465" y="1022"/>
      <point x="442" y="1036" type="curve"/>
      <point x="422" y="1048"/>
      <point x="399" y="1064"/>
    </contour>
    <contour>
      <point x="555" y="776" type="line"/>
      <point x="467" y="915" type="line"/>
      <point x="368" y="915" type="line"/>
      <point x="236" y="786" type="line"/>
      <point x="275" y="751" type="line"/>
      <point x="410" y="862" type="line"/>
      <point x="508" y="751" type="line"/>
    </contour>
    <contour>
      <point x="164" y="698" type="line"/>
      <point x="47" y="0" type="line"/>
      <point x="477" y="0" type="line"/>
      <point x="489" y="72" type="line"/>
      <point x="141" y="72" type="line"/>
      <point x="182" y="318" type="line"/>
      <point x="517" y="318" type="line"/>
      <point x="529" y="390" type="line"/>
      <point x="194" y="390" type="line"/>
      <point x="234" y="626" type="line"/>
      <point x="580" y="626" type="line"/>
      <point x="592" y="698" type="line"/>
    </contour>
  </outline>
</glyph>
<glyph name="uni1EC5" format="1">
  <advance width="600"/>
  <unicode hex="1EC5"/>
  <outline>
    <contour>
      <point x="342" y="894" type="curve"/>
      <point x="300" y="894"/>
      <point x="265" y="868"/>
      <point x="243" y="842" type="curve"/>
      <point x="271" y="801" type="line"/>
      <point x="294" y="819"/>
      <point x="313" y="830"/>
      <point x="334" y="830" type="curve"/>
      <point x="353" y="830"/>
      <point x="375" y="821"/>
      <point x="398" y="807" type="curve"/>
      <point x="418" y="795"/>
      <point x="441" y="779"/>
      <point x="474" y="779" type="curve"/>
      <point x="516" y="779"/>
      <point x="551" y="805"/>
      <point x="573" y="831" type="curve"/>
      <point x="545" y="872" type="line"/>
      <point x="522" y="854"/>
      <point x="503" y="843"/>
      <point x="482" y="843" type="curve"/>
      <point x="463" y="843"/>
      <point x="441" y="852"/>
      <point x="418" y="866" type="curve"/>
      <point x="398" y="878"/>
      <point x="375" y="894"/>
    </contour>
    <contour>
      <point x="531" y="606" type="line"/>
      <point x="443" y="745" type="line"/>
      <point x="344" y="745" type="line"/>
      <point x="212" y="616" type="line"/>
      <point x="251" y="581" type="line"/>
      <point x="386" y="692" type="line"/>
      <point x="484" y="581" type="line"/>
    </contour>
    <contour>
      <point x="277" y="-12" type="curve"/>
      <point x="386" y="-12"/>
      <point x="456" y="40"/>
      <point x="514" y="135" type="curve"/>
      <point x="459" y="169" type="line"/>
      <point x="401" y="87"/>
      <point x="358" y="55"/>
      <point x="284" y="55" type="curve"/>
      <point x="176" y="55"/>
      <point x="155" y="122"/>
      <point x="155" y="194" type="curve"/>
      <point x="155" y="196"/>
      <point x="155" y="207"/>
      <point x="156" y="217" type="curve"/>
      <point x="485" y="226"/>
      <point x="532" y="316"/>
      <point x="532" y="389" type="curve"/>
      <point x="532" y="479"/>
      <point x="458" y="528"/>
      <point x="357" y="528" type="curve"/>
      <point x="191" y="528"/>
      <point x="73" y="396"/>
      <point x="73" y="209" type="curve"/>
      <point x="73" y="61"/>
      <point x="147" y="-12"/>
    </contour>
    <contour>
      <point x="350" y="463" type="curve"/>
      <point x="425" y="463"/>
      <point x="452" y="428"/>
      <point x="452" y="386" type="curve"/>
      <point x="452" y="336"/>
      <point x="414" y="279"/>
      <point x="162" y="271" type="curve"/>
      <point x="163" y="281" type="line" smooth="yes"/>
      <point x="178" y="398"/>
      <point x="246" y="463"/>
    </contour>
  </outline>
</glyph>
<glyph name="uni1EC8" format="1">
  <advance width="600"/>
  <unicode hex="1EC8"/>
  <outline>
    <contour>
      <point x="432" y="935" type="curve"/>
      <point x="330" y="935" type="line"/>
      <point x="320" y="874" type="line"/>
      <point x="435" y="874" type="line"/>
      <point x="364" y="774" type="line"/>
      <point x="407" y="747" type="line"/>
      <point x="447" y="789" type="line" smooth="yes"/>
      <point x="480" y="823"/>
      <point x="499" y="853"/>
      <point x="499" y="883" type="curve"/>
      <point x="499" y="913"/>
      <point x="479" y="935"/>
    </contour>
    <contour>
      <point x="52" y="66" type="line"/>
      <point x="41" y="0" type="line"/>
      <point x="473" y="0" type="line"/>
      <point x="484" y="66" type="line"/>
      <point x="309" y="66" type="line"/>
      <point x="404" y="632" type="line"/>
      <point x="579" y="632" type="line"/>
      <point x="590" y="698" type="line"/>
      <point x="158" y="698" type="line"/>
      <point x="147" y="632" type="line"/>
      <point x="322" y="632" type="line"/>
      <point x="227" y="66" type="line"/>
    </contour>
  </outline>
</glyph>
<glyph name="uni1ED0" format="1">
  <advance width="600"/>
  <unicode hex="1ED0"/>
  <outline>
    <contour>
      <point x="500" y="904" type="line"/>
      <point x="544" y="878" type="line"/>
      <point x="673" y="1033" type="line"/>
      <point x="608" y="1070" type="line"/>
    </contour>
    <contour>
      <point x="539" y="778" type="line"/>
      <point x="452" y="925" type="line"/>
      <point x="354" y="925" type="line"/>
      <point x="221" y="784" type="line"/>
      <point x="260" y="751" type="line"/>
      <point x="397" y="868" type="line"/>
      <point x="493" y="751" type="line"/>
    </contour>
    <contour>
      <point x="260" y="-12" type="curve"/>
      <point x="510" y="-12"/>
      <point x="570" y="297"/>
      <point x="570" y="473" type="curve"/>
      <point x="570" y="625"/>
      <point x="508" y="710"/>
      <point x="372" y="710" type="curve"/>
      <point x="122" y="710"/>
      <point x="62" y="401"/>
      <point x="62" y="225" type="curve"/>
      <point x="62" y="73"/>
      <point x="124" y="-12"/>
    </contour>
    <contour>
      <point x="266" y="60" type="curve"/>
      <point x="178" y="60"/>
      <point x="143" y="115"/>
      <point x="143" y="210" type="curve"/>
      <point x="143" y="233"/>
      <point x="145" y="262"/>
      <point x="150" y="292" type="curve"/>
      <point x="169" y="406" type="line" smooth="yes"/>
      <point x="193" y="549"/>
      <point x="259" y="638"/>
      <point x="366" y="638" type="curve"/>
      <point x="454" y="638"/>
      <point x="489" y="583"/>
      <point x="489" y="488" type="curve"/>
      <point x="489" y="465"/>
      <point x="487" y="436"/>
      <point x="482" y="406" type="curve"/>
      <point x="463" y="292" type="line" smooth="yes"/>
      <point x="439" y="149"/>
      <point x="373" y="60"/>
    </contour>
  </outline>
</glyph>
<glyph name="uni1ED6" format="1">
  <advance width="600"/>
  <unicode hex="1ED6"/>
  <outline>
    <contour>
      <point x="352" y="1064" type="curve"/>
      <point x="310" y="1064"/>
      <point x="275" y="1038"/>
      <point x="253" y="1012" type="curve"/>
      <point x="281" y="971" type="line"/>
      <point x="304" y="989"/>
      <point x="323" y="1000"/>
      <point x="344" y="1000" type="curve"/>
      <point x="363" y="1000"/>
      <point x="385" y="991"/>
      <point x="408" y="977" type="curve"/>
      <point x="428" y="965"/>
      <point x="451" y="949"/>
      <point x="484" y="949" type="curve"/>
      <point x="526" y="949"/>
      <point x="561" y="975"/>
      <point x="583" y="1001" type="curve"/>
      <point x="555" y="1042" type="line"/>
      <point x="532" y="1024"/>
      <point x="513" y="1013"/>
      <point x="492" y="1013" type="curve"/>
      <point x="473" y="1013"/>
      <point x="451" y="1022"/>
      <point x="428" y="1036" type="curve"/>
      <point x="408" y="1048"/>
      <point x="385" y="1064"/>
    </contour>
    <contour>
      <point x="541" y="776" type="line"/>
      <point x="453" y="915" type="line"/>
      <point x="354" y="915" type="line"/>
      <point x="222" y="786" type="line"/>
      <point x="261" y="751" type="line"/>
      <point x="396" y="862" type="line"/>
      <point x="494" y="751" type="line"/>
    </contour>
    <contour>
      <point x="260" y="-12" type="curve"/>
      <point x="510" y="-12"/>
      <point x="570" y="297"/>
      <point x="570" y="473" type="curve"/>
      <point x="570" y="625"/>
      <point x="508" y="710"/>
      <point x="372" y="710" type="curve"/>
      <point x="122" y="710"/>
      <point x="62" y="401"/>
      <point x="62" y="225" type="curve"/>
      <point x="62" y="73"/>
      <point x="124" y="-12"/>
    </contour>
    <contour>
      <point x="266" y="60" type="curve"/>
      <point x="178" y="60"/>
      <point x="143" y="115"/>
      <point x="143" y="210" type="curve"/>
      <point x="143" y="233"/>
      <point x="145" y="262"/>
      <point x="150" y="292" type="curve"/>
      <point x="169" y="406" type="line" smooth="yes"/>
      <point x="193" y="549"/>
      <point x="259" y="638"/>
      <point x="366" y="638" type="curve"/>
      <point x="454" y="638"/>
      <point x="489" y="583"/>
      <point x="489" y="488" type="curve"/>
      <point x="489" y="465"/>
      <point x="487" y="436"/>
      <point x="482" y="406" type="curve"/>
      <point x="463" y="292" type="line" smooth="yes"/>
      <point x="439" y="149"/>
      <point x="373" y="60"/>
    </contour>
  </outline>
</glyph>
<glyph name="uni1EE5" format="1">
  <advance width="600"/>
  <unicode hex="1EE5"/>
  <outline>
    <contour>
      <point x="236" y="-171" type="curve"/>
      <point x="276" y="-171"/>
      <point x="288" y="-153"/>
      <point x="295" y="-128" type="curve"/>
      <point x="297" y="-121"/>
      <point x="299" y="-109"/>
      <point x="299" y="-102" type="curve"/>
      <point x="299" y="-83"/>
      <point x="285" y="-66"/>
      <point x="247" y="-66" type="curve"/>
      <point x="207" y="-66"/>
      <point x="195" y="-84"/>
      <point x="188" y="-109" type="curve"/>
      <point x="186" y="-116"/>
      <point x="184" y="-128"/>
      <point x="184" y="-135" type="curve"/>
      <point x="184" y="-154"/>
      <point x="198" y="-171"/>
    </contour>
    <contour>
      <point x="395" y="122" type="curve"/>
      <point x="399" y="122" type="line"/>
      <point x="379" y="0" type="line"/>
      <point x="457" y="0" type="line"/>
      <point x="543" y="516" type="line"/>
      <point x="465" y="516" type="line"/>
      <point x="417" y="231" type="line" smooth="yes"/>
      <point x="407" y="172"/>
      <point x="369" y="126"/>
      <point x="358" y="113" type="curve"/>
      <point x="329" y="79"/>
      <point x="294" y="57"/>
      <point x="249" y="57" type="curve"/>
      <point x="191" y="57"/>
      <point x="163" y="95"/>
      <point x="163" y="156" type="curve"/>
      <point x="163" y="167"/>
      <point x="164" y="187"/>
      <point x="168" y="211" type="curve"/>
      <point x="219" y="516" type="line"/>
      <point x="141" y="516" type="line"/>
      <point x="89" y="204" type="line" smooth="yes"/>
      <point x="85" y="181"/>
      <point x="83" y="157"/>
      <point x="83" y="137" type="curve"/>
      <point x="83" y="43"/>
      <point x="137" y="-12"/>
      <point x="223" y="-12" type="curve"/>
      <point x="306" y="-12"/>
      <point x="357" y="40"/>
    </contour>
  </outline>
</glyph>
<glyph name="uni1EE6" format="1">
  <advance width="600"/>
  <unicode hex="1EE6"/>
  <outline>
    <contour>
      <point x="427" y="935" type="curve"/>
      <point x="325" y="935" type="line"/>
      <point x="315" y="874" type="line"/>
      <point x="430" y="874" type="line"/>
      <point x="359" y="774" type="line"/>
      <point x="402" y="747" type="line"/>
      <point x="442" y="789" type="line" smooth="yes"/>
      <point x="475" y="823"/>
      <point x="494" y="853"/>
      <point x="494" y="883" type="curve"/>
      <point x="494" y="913"/>
      <point x="474" y="935"/>
    </contour>
    <contour>
      <point x="169" y="298" type="curve"/>
      <point x="236" y="698" type="line"/>
      <point x="154" y="698" type="line"/>
      <point x="91" y="323" type="line" smooth="yes"/>
      <point x="82" y="269"/>
      <point x="73" y="209"/>
      <point x="73" y="166" type="curve"/>
      <point x="73" y="52"/>
      <point x="126" y="-12"/>
      <point x="269" y="-12" type="curve"/>
      <point x="452" y="-12"/>
      <point x="489" y="84"/>
      <point x="524" y="291" type="curve"/>
      <point x="592" y="698" type="line"/>
      <point x="510" y="698" type="line"/>
      <point x="439" y="274" type="line" smooth="yes"/>
      <point x="416" y="137"/>
      <point x="398" y="60"/>
      <point x="266" y="60" type="curve"/>
      <point x="177" y="60"/>
      <point x="154" y="104"/>
      <point x="154" y="173" type="curve"/>
      <point x="154" y="198"/>
      <point x="157" y="226"/>
    </contour>
  </outline>
</glyph>
<glyph name="uni1EF8" format="1">
  <advance width="600"/>
  <unicode hex="1EF8"/>
  <outline>
    <contour>
      <point x="455" y="782" type="curve"/>
      <point x="497" y="782"/>
      <point x="532" y="808"/>
      <point x="554" y="834" type="curve"/>
      <point x="526" y="875" type="line"/>
      <point x="503" y="857"/>
      <point x="484" y="846"/>
      <point x="463" y="846" type="curve"/>
      <point x="444" y="846"/>
      <point x="422" y="855"/>
      <point x="399" y="869" type="curve"/>
      <point x="379" y="881"/>
      <point x="356" y="897"/>
      <point x="323" y="897" type="curve"/>
      <point x="281" y="897"/>
      <point x="246" y="871"/>
      <point x="224" y="845" type="curve"/>
      <point x="252" y="804" type="line"/>
      <point x="275" y="822"/>
      <point x="294" y="833"/>
      <point x="315" y="833" type="curve"/>
      <point x="334" y="833"/>
      <point x="356" y="824"/>
      <point x="379" y="810" type="curve"/>
      <point x="399" y="798"/>
      <point x="422" y="782"/>
    </contour>
    <contour>
      <point x="262" y="272" type="line"/>
      <point x="216" y="0" type="line"/>
      <point x="298" y="0" type="line"/>
      <point x="345" y="279" type="line"/>
      <point x="656" y="698" type="line"/>
      <point x="558" y="698" type="line"/>
      <point x="427" y="515" type="line"/>
      <point x="312" y="354" type="line"/>
      <point x="308" y="354" type="line"/>
      <point x="249" y="515" type="line"/>
      <point x="178" y="698" type="line"/>
      <point x="90" y="698" type="line"/>
    </contour>
  </outline>
</glyph>
<glyph name="endash" format="1">
  <advance width="900"/>
  <unicode hex="2013"/>
  <outline>
    <contour>
      <point x="113" y="268" type="line"/>
      <point x="808" y="268" type="line"/>
      <point x="820" y="340" type="line"/>
      <point x="125" y="340" type="line"/>
    </contour>
  </outline>
</glyph>
<glyph name="emdash" format="1">
  <advance width="600"/>
  <unicode hex="2014"/>
  <outline>
    <contour>
      <point x="4" y="268" type="line"/>
      <point x="598" y="268" type="line"/>
      <point x="610" y="340" type="line"/>
      <point x="16" y="340" type="line"/>
    </contour>
  </outline>
</glyph>
<glyph name="quotedblbase" format="1">
  <advance width="600"/>
  <unicode hex="201E"/>
  <outline>
    <contour>
      <point x="509" y="135" type="line"/>
      <point x="382" y="135" type="line"/>
      <point x="284" y="-141" type="line"/>
      <point x="350" y="-141" type="line"/>
    </contour>
    <contour>
      <point x="269" y="135" type="line"/>
      <point x="142" y="135" type="line"/>
      <point x="44" y="-141" type="line"/>
      <point x="110" y="-141" type="line"/>
    </contour>
  </outline>
</glyph>
<glyph name="guilsinglright" format="1">
  <advance width="600"/>
  <unicode hex="203A"/>
  <outline>
    <contour>
      <point x="351" y="275" type="line"/>
      <point x="178" y="117" type="line"/>
      <point x="193" y="57" type="line"/>
      <point x="426" y="231" type="line"/>
      <point x="439" y="309" type="line"/>
      <point x="264" y="483" type="line"/>
      <point x="230" y="433" type="line"/>
    </contour>
  </outline>
</glyph>
<glyph name="uni2077" format="1">
  <advance width="600"/>
  <unicode hex="2077"/>
  <outline>
    <contour>
      <point x="432" y="649" type="line"/>
      <point x="239" y="329" type="line"/>
      <point x="307" y="329" type="line"/>
      <point x="495" y="645" type="line"/>
      <point x="504" y="698" type="line"/>
      <point x="232" y="698" type="line"/>
      <point x="212" y="579" type="line"/>
      <point x="265" y="579" type="line"/>
      <point x="277" y="649" type="line"/>
    </contour>
  </outline>
</glyph>
<glyph name="uni2079" format="1">
  <advance width="600"/>
  <unicode hex="2079"/>
  <outline>
    <contour>
      <point x="485" y="589" type="curve"/>
      <point x="485" y="659"/>
      <point x="440" y="704"/>
      <point x="360" y="704" type="curve"/>
      <point x="270" y="704"/>
      <point x="214" y="648"/>
      <point x="214" y="569" type="curve"/>
      <point x="214" y="510"/>
      <point x="257" y="467"/>
      <point x="319" y="467" type="curve"/>
      <point x="358" y="467"/>
      <point x="389" y="487"/>
      <point x="408" y="520" type="curve"/>
      <point x="412" y="518" type="line"/>
      <point x="391" y="449"/>
      <point x="324" y="382"/>
      <point x="221" y="329" type="curve"/>
      <point x="309" y="329" type="line"/>
      <point x="395" y="373"/>
      <point x="485" y="477"/>
    </contour>
    <contour>
      <point x="343" y="514" type="curve"/>
      <point x="302" y="514"/>
      <point x="276" y="537"/>
      <point x="276" y="568" type="curve"/>
      <point x="276" y="577"/>
      <point x="277" y="584"/>
      <point x="278" y="590" type="curve"/>
      <point x="286" y="640"/>
      <point x="320" y="657"/>
      <point x="358" y="657" type="curve"/>
      <point x="399" y="657"/>
      <point x="425" y="634"/>
      <point x="425" y="603" type="curve"/>
      <point x="425" y="594"/>
      <point x="424" y="587"/>
      <point x="423" y="581" type="curve"/>
      <point x="415" y="531"/>
      <point x="381" y="514"/>
    </contour>
  </outline>
</glyph>
<glyph name="uni2081" format="1">
  <advance width="600"/>
  <unicode hex="2081"/>
  <outline>
    <contour>
      <point x="153" y="49" type="line"/>
      <point x="145" y="0" type="line"/>
      <point x="405" y="0" type="line"/>
      <point x="413" y="49" type="line"/>
      <point x="319" y="49" type="line"/>
      <point x="373" y="369" type="line"/>
      <point x="310" y="369" type="line"/>
      <point x="178" y="297" type="line"/>
      <point x="198" y="253" type="line"/>
      <point x="303" y="310" type="line"/>
      <point x="259" y="49" type="line"/>
    </contour>
  </outline>
</glyph>
<glyph name="uni2087" format="1">
  <advance width="600"/>
  <unicode hex="2087"/>
  <outline>
    <contour>
      <point x="377" y="320" type="line"/>
      <point x="184" y="0" type="line"/>
      <point x="252" y="0" type="line"/>
      <point x="440" y="316" type="line"/>
      <point x="449" y="369" type="line"/>
      <point x="177" y="369" type="line"/>
      <point x="157" y="250" type="line"/>
      <point x="210" y="250" type="line"/>
      <point x="222" y="320" type="line"/>
    </contour>
  </outline>
</glyph>
<glyph name="uni20B8" format="1">
  <advance width="600"/>
  <unicode hex="20B8"/>
  <outline>
    <contour>
      <point x="123" y="698" type="line"/>
      <point x="112" y="630" type="line"/>
      <point x="614" y="630" type="line"/>
      <point x="625" y="698" type="line"/>
    </contour>
    <contour>
      <point x="298" y="0" type="line"/>
      <point x="377" y="472" type="line"/>
      <point x="587" y="472" type="line"/>
      <point x="598" y="540" type="line"/>
      <point x="97" y="540" type="line"/>
      <point x="86" y="472" type="line"/>
      <point x="295" y="472" type="line"/>
      <point x="216" y="0" type="line"/>
    </contour>
  </outline>
</glyph>
<glyph name="uni2116" format="1">
  <advance width="600"/>
  <unicode hex="2116"/>
  <outline>
    <contour>
      <point x="496" y="345" type="curve"/>
      <point x="567" y="345"/>
      <point x="613" y="404"/>
      <point x="630" y="522" type="curve"/>
      <point x="634" y="550"/>
      <point x="637" y="573"/>
      <point x="637" y="594" type="curve"/>
      <point x="637" y="669"/>
      <point x="608" y="706"/>
      <point x="552" y="706" type="curve"/>
      <point x="481" y="706"/>
      <point x="435" y="647"/>
      <point x="418" y="529" type="curve"/>
      <point x="414" y="501"/>
      <point x="411" y="478"/>
      <point x="411" y="457" type="curve"/>
      <point x="411" y="382"/>
      <point x="440" y="345"/>
    </contour>
    <contour>
      <point x="120" y="698" type="line"/>
      <point x="3" y="0" type="line"/>
      <point x="70" y="0" type="line"/>
      <point x="172" y="610" type="line"/>
      <point x="178" y="610" type="line"/>
      <point x="173" y="349" type="line"/>
      <point x="169" y="0" type="line"/>
      <point x="290" y="0" type="line"/>
      <point x="407" y="698" type="line"/>
      <point x="340" y="698" type="line"/>
      <point x="238" y="88" type="line"/>
      <point x="232" y="88" type="line"/>
      <point x="237" y="349" type="line"/>
      <point x="241" y="698" type="line"/>
    </contour>
    <contour>
      <point x="503" y="398" type="curve"/>
      <point x="477" y="398"/>
      <point x="467" y="417"/>
      <point x="467" y="445" type="curve"/>
      <point x="467" y="457"/>
      <point x="470" y="473"/>
      <point x="472" y="485" type="curve"/>
      <point x="485" y="564" type="line" smooth="yes"/>
      <point x="494" y="618"/>
      <point x="507" y="653"/>
      <point x="545" y="653" type="curve"/>
      <point x="571" y="653"/>
      <point x="581" y="634"/>
      <point x="581" y="606" type="curve"/>
      <point x="581" y="594"/>
      <point x="578" y="578"/>
      <point x="576" y="566" type="curve"/>
      <point x="563" y="487" type="line" smooth="yes"/>
      <point x="554" y="433"/>
      <point x="541" y="398"/>
    </contour>
    <contour>
      <point x="386" y="312" type="line"/>
      <point x="377" y="257" type="line"/>
      <point x="583" y="257" type="line"/>
      <point x="592" y="312" type="line"/>
    </contour>
  </outline>
</glyph>
<glyph name="uni2157" format="1">
  <advance width="600"/>
  <unicode hex="2157"/>
  <outline>
    <contour>
      <point x="411" y="-6" type="curve"/>
      <point x="499" y="-6"/>
      <point x="553" y="51"/>
      <point x="553" y="122" type="curve"/>
      <point x="553" y="181"/>
      <point x="515" y="215"/>
      <point x="462" y="215" type="curve"/>
      <point x="421" y="215"/>
      <point x="399" y="196"/>
      <point x="379" y="167" type="curve"/>
      <point x="374" y="167" type="line"/>
      <point x="404" y="285" type="line"/>
      <point x="561" y="285" type="line"/>
      <point x="570" y="335" type="line"/>
      <point x="364" y="335" type="line"/>
      <point x="320" y="146" type="line"/>
      <point x="370" y="138" type="line"/>
      <point x="383" y="150"/>
      <point x="409" y="165"/>
      <point x="440" y="165" type="curve"/>
      <point x="469" y="165"/>
      <point x="490" y="151"/>
      <point x="490" y="121" type="curve"/>
      <point x="490" y="114"/>
      <point x="489" y="101"/>
      <point x="486" y="92" type="curve"/>
      <point x="475" y="58"/>
      <point x="441" y="44"/>
      <point x="410" y="44" type="curve"/>
      <point x="373" y="44"/>
      <point x="357" y="64"/>
      <point x="346" y="90" type="curve"/>
      <point x="299" y="63" type="line"/>
      <point x="312" y="27"/>
      <point x="344" y="-6"/>
    </contour>
    <contour>
      <point x="656" y="698" type="line"/>
      <point x="584" y="698" type="line"/>
      <point x="375" y="398" type="line"/>
      <point x="447" y="398" type="line"/>
    </contour>
    <contour>
      <point x="257" y="300" type="line"/>
      <point x="185" y="300" type="line"/>
      <point x="-24" y="0" type="line"/>
      <point x="48" y="0" type="line"/>
    </contour>
    <contour>
      <point x="168" y="357" type="curve"/>
      <point x="246" y="357"/>
      <point x="302" y="402"/>
      <point x="302" y="468" type="curve"/>
      <point x="302" y="507"/>
      <point x="275" y="530"/>
      <point x="239" y="536" type="curve"/>
      <point x="239" y="540" type="line"/>
      <point x="283" y="548"/>
      <point x="323" y="577"/>
      <point x="323" y="627" type="curve"/>
      <point x="323" y="674"/>
      <point x="282" y="704"/>
      <point x="216" y="704" type="curve"/>
      <point x="160" y="704"/>
      <point x="125" y="682"/>
      <point x="95" y="647" type="curve"/>
      <point x="133" y="612" type="line"/>
      <point x="153" y="640"/>
      <point x="177" y="654"/>
      <point x="206" y="654" type="curve"/>
      <point x="240" y="654"/>
      <point x="258" y="639"/>
      <point x="258" y="618" type="curve"/>
      <point x="258" y="613"/>
      <point x="258" y="607"/>
      <point x="257" y="600" type="curve"/>
      <point x="254" y="578"/>
      <point x="228" y="560"/>
      <point x="187" y="560" type="curve"/>
      <point x="152" y="560" type="line"/>
      <point x="144" y="513" type="line"/>
      <point x="179" y="513" type="line" smooth="yes"/>
      <point x="219" y="513"/>
      <point x="239" y="498"/>
      <point x="239" y="472" type="curve"/>
      <point x="239" y="467"/>
      <point x="239" y="459"/>
      <point x="238" y="454" type="curve"/>
      <point x="232" y="424"/>
      <point x="207" y="407"/>
      <point x="168" y="407" type="curve"/>
      <point x="124" y="407"/>
      <point x="106" y="429"/>
      <point x="96" y="458" type="curve"/>
      <point x="47" y="428" type="line"/>
      <point x="62" y="391"/>
      <point x="95" y="357"/>
    </contour>
  </outline>
</glyph>
<glyph name="uni21B2" format="1">
  <advance width="600"/>
  <unicode hex="21B2"/>
  <outline>
    <contour>
      <point x="296" y="366" type="line"/>
      <point x="248" y="414" type="line"/>
      <point x="41" y="207" type="line"/>
      <point x="248" y="0" type="line"/>
      <point x="296" y="48" type="line"/>
      <point x="210" y="134" type="line"/>
      <point x="160" y="176" type="line"/>
      <point x="161" y="179" type="line"/>
      <point x="257" y="173" type="line"/>
      <point x="518" y="173" type="line"/>
      <point x="518" y="698" type="line"/>
      <point x="450" y="698" type="line"/>
      <point x="450" y="241" type="line"/>
      <point x="257" y="241" type="line"/>
      <point x="161" y="235" type="line"/>
      <point x="160" y="238" type="line"/>
      <point x="210" y="280" type="line"/>
    </contour>
  </outline>
</glyph>
<glyph name="approxequal" format="1">
  <advance width="600"/>
  <unicode hex="2248"/>
  <outline>
    <contour>
      <point x="404" y="138" type="curve"/>
      <point x="463" y="138"/>
      <point x="501" y="159"/>
      <point x="534" y="190" type="curve"/>
      <point x="503" y="237" type="line"/>
      <point x="471" y="214"/>
      <point x="449" y="204"/>
      <point x="413" y="204" type="curve"/>
      <point x="371" y="204"/>
      <point x="343" y="218"/>
      <point x="306" y="237" type="curve"/>
      <point x="261" y="260"/>
      <point x="229" y="276"/>
      <point x="178" y="276" type="curve"/>
      <point x="119" y="276"/>
      <point x="81" y="255"/>
      <point x="48" y="224" type="curve"/>
      <point x="79" y="177" type="line"/>
      <point x="111" y="200"/>
      <point x="133" y="210"/>
      <point x="169" y="210" type="curve"/>
      <point x="211" y="210"/>
      <point x="239" y="196"/>
      <point x="276" y="177" type="curve"/>
      <point x="321" y="154"/>
      <point x="353" y="138"/>
    </contour>
    <contour>
      <point x="438" y="335" type="curve"/>
      <point x="497" y="335"/>
      <point x="535" y="356"/>
      <point x="568" y="387" type="curve"/>
      <point x="537" y="434" type="line"/>
      <point x="505" y="411"/>
      <point x="483" y="401"/>
      <point x="447" y="401" type="curve"/>
      <point x="405" y="401"/>
      <point x="377" y="415"/>
      <point x="340" y="434" type="curve"/>
      <point x="295" y="457"/>
      <point x="263" y="473"/>
      <point x="212" y="473" type="curve"/>
      <point x="153" y="473"/>
      <point x="115" y="452"/>
      <point x="82" y="421" type="curve"/>
      <point x="113" y="374" type="line"/>
      <point x="145" y="397"/>
      <point x="167" y="407"/>
      <point x="203" y="407" type="curve"/>
      <point x="245" y="407"/>
      <point x="273" y="393"/>
      <point x="310" y="374" type="curve"/>
      <point x="355" y="351"/>
      <point x="387" y="335"/>
    </contour>
  </outline>
</glyph>
<glyph name="greaterequal" format="1">
  <advance width="600"/>
  <unicode hex="2265"/>
  <outline>
    <contour>
      <point x="459" y="355" type="line"/>
      <point x="81" y="200" type="line"/>
      <point x="68" y="121" type="line"/>
      <point x="525" y="313" type="line"/>
      <point x="539" y="398" type="line"/>
      <point x="145" y="590" type="line"/>
      <point x="132" y="515" type="line"/>
      <point x="460" y="362" type="line"/>
    </contour>
    <contour>
      <point x="485" y="67" type="line"/>
      <point x="57" y="67" type="line"/>
      <point x="46" y="0" type="line"/>
      <point x="474" y="0" type="line"/>
    </contour>
  </outline>
</glyph>
<glyph name="uni2B0E" format="1">
  <advance width="600"/>
  <unicode hex="2B0E"/>
  <outline>
    <contour>
      <point x="205" y="357" type="line"/>
      <point x="157" y="308" type="line"/>
      <point x="364" y="101" type="line"/>
      <point x="571" y="308" type="line"/>
      <point x="523" y="357" type="line"/>
      <point x="437" y="270" type="line"/>
      <point x="395" y="220" type="line"/>
      <point x="392" y="221" type="line"/>
      <point x="398" y="318" type="line"/>
      <point x="398" y="598" type="line"/>
      <point x="26" y="598" type="line"/>
      <point x="26" y="530" type="line"/>
      <point x="330" y="530" type="line"/>
      <point x="330" y="318" type="line"/>
      <point x="336" y="221" type="line"/>
      <point x="333" y="220" type="line"/>
      <point x="291" y="270" type="line"/>
    </contour>
  </outline>
</glyph>
<glyph name="uni2B0F" format="1">
  <advance width="600"/>
  <unicode hex="2B0F"/>
  <outline>
    <contour>
      <point x="523" y="372" type="line"/>
      <point x="571" y="421" type="line"/>
      <point x="364" y="628" type="line"/>
      <point x="157" y="421" type="line"/>
      <point x="205" y="372" type="line"/>
      <point x="291" y="459" type="line"/>
      <point x="333" y="509" type="line"/>
      <point x="336" y="508" type="line"/>
      <point x="330" y="411" type="line"/>
      <point x="330" y="199" type="line"/>
      <point x="26" y="199" type="line"/>
      <point x="26" y="131" type="line"/>
      <point x="398" y="131" type="line"/>
      <point x="398" y="411" type="line"/>
      <point x="392" y="508" type="line"/>
      <point x="395" y="509" type="line"/>
      <point x="437" y="459" type="line"/>
    </contour>
  </outline>
</glyph>
<glyph name="uni2B10" format="1">
  <advance width="600"/>
  <unicode hex="2B10"/>
  <outline>
    <contour>
      <point x="77" y="357" type="line"/>
      <point x="29" y="308" type="line"/>
      <point x="236" y="101" type="line"/>
      <point x="443" y="308" type="line"/>
      <point x="395" y="357" type="line"/>
      <point x="309" y="270" type="line"/>
      <point x="267" y="220" type="line"/>
      <point x="264" y="221" type="line"/>
      <point x="270" y="318" type="line"/>
      <point x="270" y="530" type="line"/>
      <point x="574" y="530" type="line"/>
      <point x="574" y="598" type="line"/>
      <point x="202" y="598" type="line"/>
      <point x="202" y="318" type="line"/>
      <point x="208" y="221" type="line"/>
      <point x="205" y="220" type="line"/>
      <point x="163" y="270" type="line"/>
    </contour>
  </outline>
</glyph>
<glyph name="aring.alt01" format="1">
  <advance width="600"/>
  <outline>
    <contour>
      <point x="343" y="578" type="curve"/>
      <point x="411" y="578"/>
      <point x="472" y="634"/>
      <point x="472" y="705" type="curve"/>
      <point x="472" y="763"/>
      <point x="430" y="804"/>
      <point x="371" y="804" type="curve"/>
      <point x="303" y="804"/>
      <point x="242" y="748"/>
      <point x="242" y="677" type="curve"/>
      <point x="242" y="619"/>
      <point x="284" y="578"/>
    </contour>
    <contour>
      <point x="347" y="625" type="curve"/>
      <point x="314" y="625"/>
      <point x="297" y="642"/>
      <point x="297" y="669" type="curve"/>
      <point x="297" y="676"/>
      <point x="299" y="689"/>
      <point x="301" y="701" type="curve"/>
      <point x="307" y="737"/>
      <point x="333" y="757"/>
      <point x="367" y="757" type="curve"/>
      <point x="400" y="757"/>
      <point x="417" y="740"/>
      <point x="417" y="713" type="curve"/>
      <point x="417" y="706"/>
      <point x="415" y="693"/>
      <point x="413" y="681" type="curve"/>
      <point x="407" y="645"/>
      <point x="381" y="625"/>
    </contour>
    <contour>
      <point x="219" y="-12" type="curve"/>
      <point x="300" y="-12"/>
      <point x="356" y="32"/>
      <point x="386" y="91" type="curve"/>
      <point x="390" y="91" type="line"/>
      <point x="375" y="0" type="line"/>
      <point x="451" y="0" type="line"/>
      <point x="505" y="324" type="line" smooth="yes"/>
      <point x="508" y="342"/>
      <point x="510" y="361"/>
      <point x="510" y="379" type="curve"/>
      <point x="510" y="463"/>
      <point x="442" y="528"/>
      <point x="329" y="528" type="curve"/>
      <point x="230" y="528"/>
      <point x="161" y="479"/>
      <point x="126" y="428" type="curve"/>
      <point x="176" y="384" type="line"/>
      <point x="211" y="432"/>
      <point x="254" y="461"/>
      <point x="323" y="461" type="curve"/>
      <point x="393" y="461"/>
      <point x="432" y="428"/>
      <point x="432" y="364" type="curve"/>
      <point x="432" y="354"/>
      <point x="431" y="343"/>
      <point x="429" y="331" type="curve"/>
      <point x="423" y="295" type="line"/>
      <point x="308" y="295" type="line" smooth="yes"/>
      <point x="135" y="295"/>
      <point x="61" y="228"/>
      <point x="61" y="120" type="curve"/>
      <point x="61" y="39"/>
      <point x="121" y="-12"/>
    </contour>
    <contour>
      <point x="238" y="55" type="curve"/>
      <point x="177" y="55"/>
      <point x="140" y="78"/>
      <point x="140" y="119" type="curve"/>
      <point x="140" y="129"/>
      <point x="140" y="134"/>
      <point x="143" y="152" type="curve"/>
      <point x="152" y="206"/>
      <point x="201" y="235"/>
      <point x="297" y="235" type="curve"/>
      <point x="413" y="235" type="line"/>
      <point x="400" y="157" type="line" smooth="yes"/>
      <point x="391" y="103"/>
      <point x="323" y="55"/>
    </contour>
  </outline>
</glyph>
<glyph name="dotaccent.case" format="1">
  <advance width="600"/>
  <outline>
    <contour>
      <point x="317" y="782" type="curve"/>
      <point x="361" y="782"/>
      <point x="379" y="806"/>
      <point x="383" y="830" type="curve"/>
      <point x="384" y="836"/>
      <point x="387" y="852"/>
      <point x="387" y="859" type="curve"/>
      <point x="387" y="880"/>
      <point x="372" y="899"/>
      <point x="329" y="899" type="curve"/>
      <point x="285" y="899"/>
      <point x="267" y="875"/>
      <point x="263" y="851" type="curve"/>
      <point x="262" y="845"/>
      <point x="259" y="829"/>
      <point x="259" y="822" type="curve"/>
      <point x="259" y="801"/>
      <point x="274" y="782"/>
    </contour>
  </outline>
</glyph>
<glyph name="ijacute" format="1">
  <advance width="600"/>
  <outline>
    <contour>
      <point x="227" y="516" type="line"/>
      <point x="149" y="516" type="line"/>
      <point x="63" y="0" type="line"/>
      <point x="141" y="0" type="line"/>
    </contour>
    <contour>
      <point x="335" y="-212" type="curve"/>
      <point x="395" y="-212"/>
      <point x="422" y="-163"/>
      <point x="431" y="-107" type="curve"/>
      <point x="535" y="516" type="line"/>
      <point x="457" y="516" type="line"/>
      <point x="348" y="-138" type="line"/>
      <point x="330" y="-142" type="line"/>
      <point x="226" y="-32" type="line"/>
      <point x="173" y="-80" type="line"/>
      <point x="208" y="-118" type="line" smooth="yes"/>
      <point x="263" y="-177"/>
      <point x="293" y="-212"/>
    </contour>
    <contour>
      <point x="271" y="779" type="line"/>
      <point x="163" y="614" type="line"/>
      <point x="210" y="585" type="line"/>
      <point x="339" y="740" type="line"/>
    </contour>
    <contour>
      <point x="578" y="779" type="line"/>
      <point x="470" y="614" type="line"/>
      <point x="517" y="585" type="line"/>
      <point x="646" y="740" type="line"/>
    </contour>
  </outline>
</glyph>
<glyph name="macron.case" format="1">
  <advance width="600"/>
  <outline>
    <contour>
      <point x="468" y="875" type="line"/>
      <point x="191" y="875" type="line"/>
      <point x="180" y="808" type="line"/>
      <point x="457" y="808" type="line"/>
    </contour>
  </outline>
</glyph>
<glyph name="seven.numr" format="1">
  <advance width="600"/>
  <outline>
    <contour>
      <point x="298" y="647" type="line"/>
      <point x="424" y="647" type="line"/>
      <point x="251" y="363" type="line"/>
      <point x="314" y="363" type="line"/>
      <point x="486" y="645" type="line"/>
      <point x="495" y="698" type="line"/>
      <point x="252" y="698" type="line"/>
      <point x="233" y="582" type="line"/>
      <point x="287" y="582" type="line"/>
    </contour>
  </outline>
</glyph>
<glyph name="uni03020300" format="1">
  <advance width="0"/>
  <note>
    circumflexgrave
  </note>
  <outline>
    <contour>
      <point x="-124" y="905" type="line"/>
      <point x="-195" y="879" type="line"/>
      <point x="-120" y="713" type="line"/>
      <point x="-72" y="731" type="line"/>
    </contour>
    <contour>
      <point x="174" y="608" type="line"/>
      <point x="87" y="755" type="line"/>
      <point x="-11" y="755" type="line"/>
      <point x="-144" y="614" type="line"/>
      <point x="-105" y="581" type="line"/>
      <point x="32" y="698" type="line"/>
      <point x="128" y="581" type="line"/>
    </contour>
  </outline>
</glyph>
<glyph name="uni03020303.ccmp0" format="1">
  <advance width="0"/>
  <outline>
    <contour>
      <point x="-13" y="1064" type="curve"/>
      <point x="-55" y="1064"/>
      <point x="-90" y="1038"/>
      <point x="-112" y="1012" type="curve"/>
      <point x="-84" y="971" type="line"/>
      <point x="-61" y="989"/>
      <point x="-42" y="1000"/>
      <point x="-21" y="1000" type="curve"/>
      <point x="-2" y="1000"/>
      <point x="20" y="991"/>
      <point x="43" y="977" type="curve"/>
      <point x="63" y="965"/>
      <point x="86" y="949"/>
      <point x="119" y="949" type="curve"/>
      <point x="161" y="949"/>
      <point x="196" y="975"/>
      <point x="218" y="1001" type="curve"/>
      <point x="190" y="1042" type="line"/>
      <point x="167" y="1024"/>
      <point x="148" y="1013"/>
      <point x="127" y="1013" type="curve"/>
      <point x="108" y="1013"/>
      <point x="86" y="1022"/>
      <point x="63" y="1036" type="curve"/>
      <point x="43" y="1048"/>
      <point x="20" y="1064"/>
    </contour>
    <contour>
      <point x="176" y="776" type="line"/>
      <point x="88" y="915" type="line"/>
      <point x="-11" y="915" type="line"/>
      <point x="-143" y="786" type="line"/>
      <point x="-104" y="751" type="line"/>
      <point x="31" y="862" type="line"/>
      <point x="129" y="751" type="line"/>
    </contour>
  </outline>
</glyph>
<glyph name="uni03020303" format="1">
  <advance width="0"/>
  <note>
    circumflextilde
  </note>
  <outline>
    <contour>
      <point x="-12" y="894" type="curve"/>
      <point x="-54" y="894"/>
      <point x="-89" y="868"/>
      <point x="-111" y="842" type="curve"/>
      <point x="-83" y="801" type="line"/>
      <point x="-60" y="819"/>
      <point x="-41" y="830"/>
      <point x="-20" y="830" type="curve"/>
      <point x="-1" y="830"/>
      <point x="21" y="821"/>
      <point x="44" y="807" type="curve"/>
      <point x="64" y="795"/>
      <point x="87" y="779"/>
      <point x="120" y="779" type="curve"/>
      <point x="162" y="779"/>
      <point x="197" y="805"/>
      <point x="219" y="831" type="curve"/>
      <point x="191" y="872" type="line"/>
      <point x="168" y="854"/>
      <point x="149" y="843"/>
      <point x="128" y="843" type="curve"/>
      <point x="109" y="843"/>
      <point x="87" y="852"/>
      <point x="64" y="866" type="curve"/>
      <point x="44" y="878"/>
      <point x="21" y="894"/>
    </contour>
    <contour>
      <point x="177" y="606" type="line"/>
      <point x="89" y="745" type="line"/>
      <point x="-10" y="745" type="line"/>
      <point x="-142" y="616" type="line"/>
      <point x="-103" y="581" type="line"/>
      <point x="32" y="692" type="line"/>
      <point x="130" y="581" type="line"/>
    </contour>
  </outline>
</glyph>
<glyph name="uni03020309" format="1">
  <advance width="0"/>
  <note>
    circumflexhook
  </note>
  <outline>
    <contour>
      <point x="206" y="895" type="curve"/>
      <point x="105" y="895" type="line"/>
      <point x="94" y="834" type="line"/>
      <point x="209" y="834" type="line"/>
      <point x="138" y="734" type="line"/>
      <point x="180" y="707" type="line"/>
      <point x="236" y="770" type="line" smooth="yes"/>
      <point x="259" y="796"/>
      <point x="273" y="820"/>
      <point x="273" y="844" type="curve"/>
      <point x="273" y="872"/>
      <point x="253" y="895"/>
    </contour>
    <contour>
      <point x="174" y="608" type="line"/>
      <point x="87" y="755" type="line"/>
      <point x="-11" y="755" type="line"/>
      <point x="-144" y="614" type="line"/>
      <point x="-105" y="581" type="line"/>
      <point x="32" y="698" type="line"/>
      <point x="128" y="581" type="line"/>
    </contour>
  </outline>
</glyph>
<glyph name="uni03060300.ccmp0" format="1">
  <advance width="0"/>
  <outline>
    <contour>
      <point x="11" y="755" type="curve"/>
      <point x="115" y="755"/>
      <point x="169" y="831"/>
      <point x="200" y="894" type="curve"/>
      <point x="151" y="917" type="line"/>
      <point x="125" y="885" type="line" smooth="yes"/>
      <point x="83" y="833"/>
      <point x="55" y="817"/>
      <point x="16" y="817" type="curve"/>
      <point x="-27" y="817"/>
      <point x="-46" y="837"/>
      <point x="-70" y="885" type="curve"/>
      <point x="-86" y="917" type="line"/>
      <point x="-131" y="894" type="line"/>
      <point x="-122" y="836"/>
      <point x="-97" y="755"/>
    </contour>
    <contour>
      <point x="5" y="1070" type="line"/>
      <point x="-66" y="1044" type="line"/>
      <point x="9" y="878" type="line"/>
      <point x="57" y="896" type="line"/>
    </contour>
  </outline>
</glyph>
<glyph name="uni03060300" format="1">
  <advance width="0"/>
  <note>
    brevegrave
  </note>
  <outline>
    <contour>
      <point x="11" y="585" type="curve"/>
      <point x="115" y="585"/>
      <point x="169" y="661"/>
      <point x="200" y="724" type="curve"/>
      <point x="151" y="747" type="line"/>
      <point x="125" y="715" type="line" smooth="yes"/>
      <point x="83" y="663"/>
      <point x="55" y="647"/>
      <point x="16" y="647" type="curve"/>
      <point x="-27" y="647"/>
      <point x="-46" y="667"/>
      <point x="-70" y="715" type="curve"/>
      <point x="-86" y="747" type="line"/>
      <point x="-131" y="724" type="line"/>
      <point x="-122" y="666"/>
      <point x="-97" y="585"/>
    </contour>
    <contour>
      <point x="5" y="900" type="line"/>
      <point x="-66" y="874" type="line"/>
      <point x="9" y="708" type="line"/>
      <point x="57" y="726" type="line"/>
    </contour>
  </outline>
</glyph>
<glyph name="uni03060301.ccmp0" format="1">
  <advance width="0"/>
  <outline>
    <contour>
      <point x="11" y="755" type="curve"/>
      <point x="115" y="755"/>
      <point x="169" y="831"/>
      <point x="200" y="894" type="curve"/>
      <point x="151" y="917" type="line"/>
      <point x="125" y="885" type="line" smooth="yes"/>
      <point x="83" y="833"/>
      <point x="55" y="817"/>
      <point x="16" y="817" type="curve"/>
      <point x="-27" y="817"/>
      <point x="-46" y="837"/>
      <point x="-70" y="885" type="curve"/>
      <point x="-86" y="917" type="line"/>
      <point x="-131" y="894" type="line"/>
      <point x="-122" y="836"/>
      <point x="-97" y="755"/>
    </contour>
    <contour>
      <point x="-14" y="904" type="line"/>
      <point x="30" y="878" type="line"/>
      <point x="159" y="1033" type="line"/>
      <point x="94" y="1070" type="line"/>
    </contour>
  </outline>
</glyph>
<glyph name="uni0308030C" format="1">
  <advance width="0"/>
  <note>
    dieresiscaron
  </note>
  <outline>
    <contour>
      <point x="-106" y="876" type="line"/>
      <point x="-16" y="729" type="line"/>
      <point x="76" y="729" type="line"/>
      <point x="212" y="870" type="line"/>
      <point x="173" y="903" type="line"/>
      <point x="36" y="788" type="line"/>
      <point x="-60" y="903" type="line"/>
    </contour>
    <contour>
      <point x="-82" y="598" type="curve"/>
      <point x="-42" y="598"/>
      <point x="-30" y="615"/>
      <point x="-23" y="641" type="curve"/>
      <point x="-21" y="648"/>
      <point x="-19" y="659"/>
      <point x="-19" y="666" type="curve"/>
      <point x="-19" y="685"/>
      <point x="-32" y="702"/>
      <point x="-71" y="702" type="curve"/>
      <point x="-111" y="702"/>
      <point x="-123" y="685"/>
      <point x="-130" y="659" type="curve"/>
      <point x="-132" y="652"/>
      <point x="-134" y="641"/>
      <point x="-134" y="634" type="curve"/>
      <point x="-134" y="615"/>
      <point x="-121" y="598"/>
    </contour>
    <contour>
      <point x="112" y="598" type="curve"/>
      <point x="152" y="598"/>
      <point x="164" y="615"/>
      <point x="171" y="641" type="curve"/>
      <point x="173" y="648"/>
      <point x="175" y="659"/>
      <point x="175" y="666" type="curve"/>
      <point x="175" y="685"/>
      <point x="162" y="702"/>
      <point x="123" y="702" type="curve"/>
      <point x="83" y="702"/>
      <point x="71" y="685"/>
      <point x="64" y="659" type="curve"/>
      <point x="62" y="652"/>
      <point x="60" y="641"/>
      <point x="60" y="634" type="curve"/>
      <point x="60" y="615"/>
      <point x="73" y="598"/>
    </contour>
  </outline>
</glyph>
<glyph name="uni1EA5.alt01" format="1">
  <advance width="600"/>
  <outline>
    <contour>
      <point x="465" y="734" type="line"/>
      <point x="509" y="708" type="line"/>
      <point x="638" y="863" type="line"/>
      <point x="573" y="900" type="line"/>
    </contour>
    <contour>
      <point x="504" y="608" type="line"/>
      <point x="417" y="755" type="line"/>
      <point x="319" y="755" type="line"/>
      <point x="186" y="614" type="line"/>
      <point x="225" y="581" type="line"/>
      <point x="362" y="698" type="line"/>
      <point x="458" y="581" type="line"/>
    </contour>
    <contour>
      <point x="219" y="-12" type="curve"/>
      <point x="300" y="-12"/>
      <point x="356" y="32"/>
      <point x="386" y="91" type="curve"/>
      <point x="390" y="91" type="line"/>
      <point x="375" y="0" type="line"/>
      <point x="451" y="0" type="line"/>
      <point x="505" y="324" type="line" smooth="yes"/>
      <point x="508" y="342"/>
      <point x="510" y="361"/>
      <point x="510" y="379" type="curve"/>
      <point x="510" y="463"/>
      <point x="442" y="528"/>
      <point x="329" y="528" type="curve"/>
      <point x="230" y="528"/>
      <point x="161" y="479"/>
      <point x="126" y="428" type="curve"/>
      <point x="176" y="384" type="line"/>
      <point x="211" y="432"/>
      <point x="254" y="461"/>
      <point x="323" y="461" type="curve"/>
      <point x="393" y="461"/>
      <point x="432" y="428"/>
      <point x="432" y="364" type="curve"/>
      <point x="432" y="354"/>
      <point x="431" y="343"/>
      <point x="429" y="331" type="curve"/>
      <point x="423" y="295" type="line"/>
      <point x="308" y="295" type="line" smooth="yes"/>
      <point x="135" y="295"/>
      <point x="61" y="228"/>
      <point x="61" y="120" type="curve"/>
      <point x="61" y="39"/>
      <point x="121" y="-12"/>
    </contour>
    <contour>
      <point x="238" y="55" type="curve"/>
      <point x="177" y="55"/>
      <point x="140" y="78"/>
      <point x="140" y="119" type="curve"/>
      <point x="140" y="129"/>
      <point x="140" y="134"/>
      <point x="143" y="152" type="curve"/>
      <point x="152" y="206"/>
      <point x="201" y="235"/>
      <point x="297" y="235" type="curve"/>
      <point x="413" y="235" type="line"/>
      <point x="400" y="157" type="line" smooth="yes"/>
      <point x="391" y="103"/>
      <point x="323" y="55"/>
    </contour>
  </outline>
</glyph>
<glyph name="uni1EAB.alt01" format="1">
  <advance width="600"/>
  <outline>
    <contour>
      <point x="318" y="894" type="curve"/>
      <point x="276" y="894"/>
      <point x="241" y="868"/>
      <point x="219" y="842" type="curve"/>
      <point x="247" y="801" type="line"/>
      <point x="270" y="819"/>
      <point x="289" y="830"/>
      <point x="310" y="830" type="curve"/>
      <point x="329" y="830"/>
      <point x="351" y="821"/>
      <point x="374" y="807" type="curve"/>
      <point x="394" y="795"/>
      <point x="417" y="779"/>
      <point x="450" y="779" type="curve"/>
      <point x="492" y="779"/>
      <point x="527" y="805"/>
      <point x="549" y="831" type="curve"/>
      <point x="521" y="872" type="line"/>
      <point x="498" y="854"/>
      <point x="479" y="843"/>
      <point x="458" y="843" type="curve"/>
      <point x="439" y="843"/>
      <point x="417" y="852"/>
      <point x="394" y="866" type="curve"/>
      <point x="374" y="878"/>
      <point x="351" y="894"/>
    </contour>
    <contour>
      <point x="507" y="606" type="line"/>
      <point x="419" y="745" type="line"/>
      <point x="320" y="745" type="line"/>
      <point x="188" y="616" type="line"/>
      <point x="227" y="581" type="line"/>
      <point x="362" y="692" type="line"/>
      <point x="460" y="581" type="line"/>
    </contour>
    <contour>
      <point x="219" y="-12" type="curve"/>
      <point x="300" y="-12"/>
      <point x="356" y="32"/>
      <point x="386" y="91" type="curve"/>
      <point x="390" y="91" type="line"/>
      <point x="375" y="0" type="line"/>
      <point x="451" y="0" type="line"/>
      <point x="505" y="324" type="line" smooth="yes"/>
      <point x="508" y="342"/>
      <point x="510" y="361"/>
      <point x="510" y="379" type="curve"/>
      <point x="510" y="463"/>
      <point x="442" y="528"/>
      <point x="329" y="528" type="curve"/>
      <point x="230" y="528"/>
      <point x="161" y="479"/>
      <point x="126" y="428" type="curve"/>
      <point x="176" y="384" type="line"/>
      <point x="211" y="432"/>
      <point x="254" y="461"/>
      <point x="323" y="461" type="curve"/>
      <point x="393" y="461"/>
      <point x="432" y="428"/>
      <point x="432" y="364" type="curve"/>
      <point x="432" y="354"/>
      <point x="431" y="343"/>
      <point x="429" y="331" type="curve"/>
      <point x="423" y="295" type="line"/>
      <point x="308" y="295" type="line" smooth="yes"/>
      <point x="135" y="295"/>
      <point x="61" y="228"/>
      <point x="61" y="120" type="curve"/>
      <point x="61" y="39"/>
      <point x="121" y="-12"/>
    </contour>
    <contour>
      <point x="238" y="55" type="curve"/>
      <point x="177" y="55"/>
      <point x="140" y="78"/>
      <point x="140" y="119" type="curve"/>
      <point x="140" y="129"/>
      <point x="140" y="134"/>
      <point x="143" y="152" type="curve"/>
      <point x="152" y="206"/>
      <point x="201" y="235"/>
      <point x="297" y="235" type="curve"/>
      <point x="413" y="235" type="line"/>
      <point x="400" y="157" type="line" smooth="yes"/>
      <point x="391" y="103"/>
      <point x="323" y="55"/>
    </contour>
  </outline>
</glyph>
<glyph name="uni1EB5.alt01" format="1">
  <advance width="600"/>
  <outline>
    <contour>
      <point x="341" y="585" type="curve"/>
      <point x="445" y="585"/>
      <point x="499" y="661"/>
      <point x="530" y="724" type="curve"/>
      <point x="481" y="747" type="line"/>
      <point x="455" y="715" type="line" smooth="yes"/>
      <point x="413" y="663"/>
      <point x="385" y="647"/>
      <point x="346" y="647" type="curve"/>
      <point x="303" y="647"/>
      <point x="284" y="667"/>
      <point x="260" y="715" type="curve"/>
      <point x="244" y="747" type="line"/>
      <point x="199" y="724" type="line"/>
      <point x="208" y="666"/>
      <point x="233" y="585"/>
    </contour>
    <contour>
      <point x="436" y="777" type="curve"/>
      <point x="482" y="777"/>
      <point x="513" y="802"/>
      <point x="536" y="829" type="curve"/>
      <point x="508" y="864" type="line"/>
      <point x="486" y="847"/>
      <point x="468" y="837"/>
      <point x="447" y="837" type="curve"/>
      <point x="430" y="837"/>
      <point x="412" y="843"/>
      <point x="383" y="857" type="curve"/>
      <point x="364" y="866"/>
      <point x="340" y="879"/>
      <point x="307" y="879" type="curve"/>
      <point x="261" y="879"/>
      <point x="230" y="854"/>
      <point x="207" y="827" type="curve"/>
      <point x="235" y="792" type="line"/>
      <point x="257" y="809"/>
      <point x="275" y="819"/>
      <point x="296" y="819" type="curve"/>
      <point x="313" y="819"/>
      <point x="331" y="813"/>
      <point x="360" y="799" type="curve"/>
      <point x="379" y="790"/>
      <point x="403" y="777"/>
    </contour>
    <contour>
      <point x="219" y="-12" type="curve"/>
      <point x="300" y="-12"/>
      <point x="356" y="32"/>
      <point x="386" y="91" type="curve"/>
      <point x="390" y="91" type="line"/>
      <point x="375" y="0" type="line"/>
      <point x="451" y="0" type="line"/>
      <point x="505" y="324" type="line" smooth="yes"/>
      <point x="508" y="342"/>
      <point x="510" y="361"/>
      <point x="510" y="379" type="curve"/>
      <point x="510" y="463"/>
      <point x="442" y="528"/>
      <point x="329" y="528" type="curve"/>
      <point x="230" y="528"/>
      <point x="161" y="479"/>
      <point x="126" y="428" type="curve"/>
      <point x="176" y="384" type="line"/>
      <point x="211" y="432"/>
      <point x="254" y="461"/>
      <point x="323" y="461" type="curve"/>
      <point x="393" y="461"/>
      <point x="432" y="428"/>
      <point x="432" y="364" type="curve"/>
      <point x="432" y="354"/>
      <point x="431" y="343"/>
      <point x="429" y="331" type="curve"/>
      <point x="423" y="295" type="line"/>
      <point x="308" y="295" type="line" smooth="yes"/>
      <point x="135" y="295"/>
      <point x="61" y="228"/>
      <point x="61" y="120" type="curve"/>
      <point x="61" y="39"/>
      <point x="121" y="-12"/>
    </contour>
    <contour>
      <point x="238" y="55" type="curve"/>
      <point x="177" y="55"/>
      <point x="140" y="78"/>
      <point x="140" y="119" type="curve"/>
      <point x="140" y="129"/>
      <point x="140" y="134"/>
      <point x="143" y="152" type="curve"/>
      <point x="152" y="206"/>
      <point x="201" y="235"/>
      <point x="297" y="235" type="curve"/>
      <point x="413" y="235" type="line"/>
      <point x="400" y="157" type="line" smooth="yes"/>
      <point x="391" y="103"/>
      <point x="323" y="55"/>
    </contour>
  </outline>
</glyph>
<glyph name="uni1EB7.alt01" format="1">
  <advance width="600"/>
  <outline>
    <contour>
      <point x="229" y="-171" type="curve"/>
      <point x="269" y="-171"/>
      <point x="281" y="-153"/>
      <point x="288" y="-128" type="curve"/>
      <point x="290" y="-121"/>
      <point x="292" y="-109"/>
      <point x="292" y="-102" type="curve"/>
      <point x="292" y="-83"/>
      <point x="278" y="-66"/>
      <point x="240" y="-66" type="curve"/>
      <point x="200" y="-66"/>
      <point x="188" y="-84"/>
      <point x="181" y="-109" type="curve"/>
      <point x="179" y="-116"/>
      <point x="177" y="-128"/>
      <point x="177" y="-135" type="curve"/>
      <point x="177" y="-154"/>
      <point x="191" y="-171"/>
    </contour>
    <contour>
      <point x="345" y="595" type="curve"/>
      <point x="450" y="595"/>
      <point x="497" y="684"/>
      <point x="526" y="746" type="curve"/>
      <point x="476" y="767" type="line"/>
      <point x="449" y="733" type="line" smooth="yes"/>
      <point x="406" y="679"/>
      <point x="389" y="658"/>
      <point x="347" y="658" type="curve"/>
      <point x="302" y="658"/>
      <point x="289" y="683"/>
      <point x="267" y="733" type="curve"/>
      <point x="252" y="767" type="line"/>
      <point x="204" y="746" type="line"/>
      <point x="213" y="685"/>
      <point x="239" y="595"/>
    </contour>
    <contour>
      <point x="219" y="-12" type="curve"/>
      <point x="300" y="-12"/>
      <point x="356" y="32"/>
      <point x="386" y="91" type="curve"/>
      <point x="390" y="91" type="line"/>
      <point x="375" y="0" type="line"/>
      <point x="451" y="0" type="line"/>
      <point x="505" y="324" type="line" smooth="yes"/>
      <point x="508" y="342"/>
      <point x="510" y="361"/>
      <point x="510" y="379" type="curve"/>
      <point x="510" y="463"/>
      <point x="442" y="528"/>
      <point x="329" y="528" type="curve"/>
      <point x="230" y="528"/>
      <point x="161" y="479"/>
      <point x="126" y="428" type="curve"/>
      <point x="176" y="384" type="line"/>
      <point x="211" y="432"/>
      <point x="254" y="461"/>
      <point x="323" y="461" type="curve"/>
      <point x="393" y="461"/>
      <point x="432" y="428"/>
      <point x="432" y="364" type="curve"/>
      <point x="432" y="354"/>
      <point x="431" y="343"/>
      <point x="429" y="331" type="curve"/>
      <point x="423" y="295" type="line"/>
      <point x="308" y="295" type="line" smooth="yes"/>
      <point x="135" y="295"/>
      <point x="61" y="228"/>
      <point x="61" y="120" type="curve"/>
      <point x="61" y="39"/>
      <point x="121" y="-12"/>
    </contour>
    <contour>
      <point x="238" y="55" type="curve"/>
      <point x="177" y="55"/>
      <point x="140" y="78"/>
      <point x="140" y="119" type="curve"/>
      <point x="140" y="129"/>
      <point x="140" y="134"/>
      <point x="143" y="152" type="curve"/>
      <point x="152" y="206"/>
      <point x="201" y="235"/>
      <point x="297" y="235" type="curve"/>
      <point x="413" y="235" type="line"/>
      <point x="400" y="157" type="line" smooth="yes"/>
      <point x="391" y="103"/>
      <point x="323" y="55"/>
    </contour>
  </outline>
</glyph>
